<?xml version="1.0" encoding="UTF-8" standalone="no"?>
<!-- Generator: Adobe Illustrator 28.2.0, SVG Export Plug-In . SVG Version: 6.00 Build 0)  -->

<svg
   gorn="0"
   height="1.202in"
   id="Layer_1"
   version="1.1"
   viewBox="0 0 56.520184 86.544002"
   width="0.78500003in"
   x="0px"
   xml:space="preserve"
   y="0px"
   sodipodi:docname="schema.svg"
   inkscape:version="1.4.2 (ebf0e940d0, 2025-05-08)"
   xmlns:inkscape="http://www.inkscape.org/namespaces/inkscape"
   xmlns:sodipodi="http://sodipodi.sourceforge.net/DTD/sodipodi-0.dtd"
   xmlns="http://www.w3.org/2000/svg"
   xmlns:svg="http://www.w3.org/2000/svg"><defs
   id="defs123" /><sodipodi:namedview
   id="namedview123"
   pagecolor="#ffffff"
   bordercolor="#000000"
   borderopacity="0.25"
   inkscape:showpageshadow="2"
   inkscape:pageopacity="0.0"
   inkscape:pagecheckerboard="0"
   inkscape:deskcolor="#d1d1d1"
   inkscape:document-units="in"
   inkscape:zoom="8.3958333"
   inkscape:cx="65.866005"
   inkscape:cy="76.585608"
   inkscape:window-width="1920"
   inkscape:window-height="1008"
   inkscape:window-x="0"
   inkscape:window-y="0"
   inkscape:window-maximized="1"
   inkscape:current-layer="Layer_1" />
    <desc
   id="desc1">
        <referenceFile>RGB-LED_2-Fritz 2.svg</referenceFile>
    </desc>
    <style
   type="text/css"
   id="style1">
	.st0{fill:#008000;}
	.st1{fill:none;stroke:#FFFFFF;stroke-width:0.4252;stroke-linecap:round;stroke-linejoin:round;stroke-miterlimit:2.88;}
	.st2{fill:none;stroke:#FFFFFF;stroke-width:0.2835;stroke-linecap:round;stroke-linejoin:round;stroke-miterlimit:2.88;}
	.st3{fill:none;stroke:#FFFFFF;stroke-width:0.5;stroke-miterlimit:2.88;}
	.st4{fill:none;stroke:#FFCC00;stroke-width:0.5;stroke-miterlimit:10;}
	.st5{fill:none;stroke:#FFFFFF;stroke-width:0.432;}
	.st6{fill:none;stroke:#FFFFFF;stroke-width:0.432;stroke-linecap:round;}
	.st7{fill:#FFFFFF;}
	.st8{fill:#C0C0C0;stroke:#FFCC00;stroke-miterlimit:10;}
	.st9{fill:#B8AF82;}
	.st10{fill:#E2D6A1;}
	.st11{fill:#9A916C;}
	.st12{fill:#404040;}
	.st13{fill:#474747;}
	.st14{fill:#373737;}
	.st15{fill:#B88A00;}
	.st16{display:none;}
	.st17{display:inline;fill:#FFFFFF;}
	.st18{display:inline;}
	.st19{fill:none;stroke:#B1E0F2;stroke-width:0.72;stroke-linecap:round;stroke-linejoin:round;stroke-miterlimit:2.88;}
	.st20{fill:#C6C6C6;}
	.st21{fill:#D8D6D6;}
	.st22{fill:#E8E8E8;}
</style>
    
    
    
    
    
    
    
    
    
    
    <g
   class="st16"
   id="g117">
        <path
   class="st17"
   d="m 54.31,31.18 c 2.27,-3.93 7.3,-5.28 11.23,-3.01 3.93,2.27 5.28,7.3 3.01,11.23 -2.27,3.93 -7.3,5.28 -11.23,3.01 -1.25,-0.72 -2.29,-1.76 -3.01,-3.01 z"
   id="path112" />
        <g
   id="g116">
            <g
   id="g115">
                <g
   id="g114">
                    <g
   class="st18"
   id="g113">
                        <polyline
   class="st19"
   points="69.65,35.29 69.57,36.54 69.25,37.79 68.8,38.95 68.15,40.03 67.35,40.99 66.39,41.84 65.34,42.52     64.18,43.03 62.96,43.37 61.71,43.51 60.47,43.46 59.22,43.2 58.03,42.78 56.92,42.18 55.93,41.41 55.05,40.48 54.34,39.46     54.34,38.07 54.34,37.87 54.34,37.64 54.34,37.36 54.34,37.22 54.34,37.19 54.34,37.16 54.34,37.13 54.34,37.11 54.34,37.08     54.34,37.05 54.34,37.02 54.34,36.99 54.34,36.94 54.34,36.88 54.34,36.85 54.34,36.82 54.34,36.77 54.34,36.74 54.34,36.68     54.34,36.65 54.37,36.6 54.34,36.57 54.34,36.65 54.37,36.62 54.34,36.6 54.37,36.65 54.37,36.62 54.34,36.65 54.37,36.68     54.34,36.65 54.34,36.57 54.34,36.54 54.34,36.51 54.34,36.45 54.34,36.34 54.34,36.31 54.34,36.26 54.34,36.2 54.34,36.17     54.34,36.03 54.34,35.89 54.34,35.72 54.34,35.46 54.34,35.38 54.34,35.29 54.34,35.21 54.34,35.18 54.34,35.15 54.34,34.87     54.34,34.67 54.34,34.47 54.34,34.33 54.34,34.3 54.34,34.24 54.34,34.21 54.34,34.19 54.34,34.1 54.34,34.07 54.34,34.04     54.34,34.02 54.34,33.99 54.34,33.93 54.34,33.9 54.34,33.87 54.34,33.82 54.34,33.79 54.34,33.76 54.34,33.73 54.34,33.62     54.34,33.48 54.34,33.42 54.34,33.28 54.34,33.22 54.34,33.08 54.34,33.05 54.34,33.02 54.34,33 54.34,32.97 54.34,32.88     54.34,32.8 54.34,32.77 54.34,32.74 54.34,32.68 54.34,32.6 54.34,32.54 54.34,32.34 54.34,31.12 55.05,30.1 55.93,29.17     56.92,28.4 58.03,27.81 59.22,27.38 60.47,27.13 61.71,27.07 62.96,27.21 64.18,27.55 65.34,28.06 66.39,28.74 67.35,29.59     68.15,30.56 68.8,31.64 69.25,32.8 69.57,34.04 69.65,35.29 69.65,35.29   "
   id="polyline112" />
                    </g>
                </g>
            </g>
        </g>
    </g>
    
    <g
   id="g124"
   transform="translate(-20.754907,7.9220024)"><g
     id="g1"
     transform="rotate(-90,49.015,35.35)">
        <path
   class="st0"
   d="m 90.11,31.93 -4.32,-6.12 -5.4,-5.4 -5.04,-3.96 -4.68,-2.88 -6.12,-2.88 -6.48,-2.16 -5.4,-1.08 -5.76,-0.36 -5.4,0.72 -2.88,1.08 -2.88,1.8 -2.52,2.16 -1.8,3.24 -0.72,3.96 v 31.68 l 1.08,3.6 2.16,3.24 2.88,2.88 2.88,1.08 2.88,0.72 6.12,0.36 7.56,-0.72 9,-2.88 7.56,-4.32 4.32,-2.88 5.04,-4.32 4.68,-5.04 3.96,-5.76 1.44,-2.52 z M 61.48,17.75 c 4.51,0 4.5,7 0,7 -4.51,0 -4.5,-7 0,-7 z m 0.07,35.32 c -4.51,0 -4.5,-7 0,-7 4.51,0 4.5,7 0,7 z"
   id="path1" />
    </g><g
     gorn="0.3"
     id="Male_Pins_Name"
     transform="rotate(-90,49.015,35.35)">
        <g
   id="g2">
            <path
   class="st1"
   d="m 41.33,23.63 v 2.17 m 0,-2.17 h 0.93 l 0.31,0.1 0.1,0.11 0.1,0.2 v 0.21 l -0.1,0.21 -0.1,0.1 -0.31,0.1 h -0.93 m 0.72,0 0.72,1.14"
   id="path2" />
        </g>
        <g
   id="g3">
            <path
   class="st1"
   d="m 42.88,31.35 -0.11,-0.21 -0.2,-0.21 -0.21,-0.1 h -0.41 l -0.21,0.1 -0.2,0.21 -0.11,0.21 -0.1,0.31 v 0.51 l 0.1,0.31 0.11,0.21 0.2,0.21 0.21,0.1 h 0.41 l 0.21,-0.1 0.2,-0.21 0.11,-0.21 v -0.31 m -0.52,0 h 0.52"
   id="path3" />
        </g>
        <g
   id="g4">
            <path
   class="st1"
   d="m 41.33,38.39 v 2.17 m 0,-2.17 h 0.93 l 0.31,0.1 0.1,0.11 0.1,0.2 v 0.21 l -0.1,0.21 -0.1,0.1 -0.31,0.1 m -0.93,0 h 0.93 l 0.31,0.11 0.1,0.1 0.1,0.21 v 0.31 l -0.1,0.2 -0.1,0.11 -0.31,0.1 h -0.93"
   id="path4" />
        </g>
        <g
   id="g7">
            <path
   class="st1"
   d="m 41.44,45.75 -0.11,-0.21 -0.2,-0.21 -0.21,-0.1 h -0.41 l -0.21,0.1 -0.2,0.21 -0.11,0.21 -0.1,0.31 v 0.51 l 0.1,0.31 0.11,0.21 0.2,0.21 0.21,0.1 h 0.41 l 0.21,-0.1 0.2,-0.21 0.11,-0.21 v -0.31 m -0.52,0 h 0.52 m 0.67,-1.34 v 2.17 m 0,-2.17 1.45,2.17 m 0,-2.17 v 2.17 m 0.68,-2.17 v 2.17 m 0,-2.17 h 0.72 l 0.31,0.1 0.21,0.21 0.1,0.21 0.11,0.31 v 0.51 l -0.11,0.31 -0.1,0.21 -0.21,0.21 -0.31,0.1 h -0.72"
   id="path5" />
            <g
   id="g6">
                <path
   class="st2"
   d="m 35.21,50.41 v 1.35 m 0.9,-1.35 v 1.35 m -0.9,-0.7 h 0.9 m 0.42,-0.39 0.13,-0.06 0.19,-0.19 v 1.35"
   id="path6" />
            </g>
        </g>
    </g><g
     gorn="0.4"
     id="Top_Circle"
     transform="rotate(-90,49.015,35.35)">
        <path
   class="st3"
   d="m 61.49,14.15 c 3.91,0 7.09,3.17 7.09,7.09 0,3.92 -3.17,7.09 -7.09,7.09 -3.92,0 -7.09,-3.17 -7.09,-7.09 0,-3.92 3.17,-7.09 7.09,-7.09 z"
   id="path7" />
        <g
   id="g8">
            <circle
   class="st4"
   cx="61.490002"
   cy="21.299999"
   id="ellipse7"
   r="3.54" />
        </g>
    </g><g
     gorn="0.5"
     id="Bottom_Circle"
     transform="rotate(-90,49.015,35.35)">
        <path
   class="st3"
   d="m 61.49,43.27 c 3.54,0 6.41,2.87 6.41,6.41 0,3.54 -2.87,6.41 -6.41,6.41 -3.54,0 -6.41,-2.87 -6.41,-6.41 0,-3.54 2.87,-6.41 6.41,-6.41 z"
   id="path8" />
        <g
   id="g9">
            <circle
   class="st4"
   cx="61.490002"
   cy="49.68"
   id="ellipse8"
   r="3.54" />
        </g>
    </g><g
     gorn="0.6"
     id="R1_00000059306919207797075600000008071039037074879375_"
     transform="rotate(-90,49.015,35.35)">
        <g
   id="g10">
            <path
   class="st2"
   d="m 48.29,18.52 v 1.35 m 0,-1.35 h 0.58 l 0.19,0.06 0.06,0.06 0.06,0.13 v 0.13 l -0.06,0.13 -0.06,0.06 -0.19,0.06 h -0.58 m 0.45,0.02 0.45,0.71 m 0.42,-1.1 0.13,-0.06 0.19,-0.19 v 1.35"
   id="path9" />
        </g>
        <g
   gorn="0.6.1"
   id="R1">
            <g
   id="g26">
                <g
   id="g25">
                    <path
   class="st5"
   d="m 50.81,21.1 c 0.2,0 0.36,-0.19 0.36,-0.42"
   id="path10" />
                    <path
   class="st5"
   d="m 51.17,17.71 c 0,-0.23 -0.16,-0.42 -0.36,-0.42 v 0"
   id="path11" />
                    <path
   class="st5"
   d="m 42.61,17.29 c -0.2,0 -0.36,0.19 -0.36,0.42 v 0"
   id="path12" />
                    <path
   class="st5"
   d="m 42.25,20.68 c 0,0.23 0.16,0.42 0.36,0.42"
   id="path13" />
                    <line
   class="st6"
   x1="51.169998"
   x2="51.169998"
   y1="17.709999"
   y2="20.68"
   id="line13" />
                    <line
   class="st6"
   x1="50.810001"
   x2="50.279999"
   y1="21.1"
   y2="21.1"
   id="line14" />
                    <line
   class="st6"
   x1="50.099998"
   x2="50.279999"
   y1="20.889999"
   y2="21.1"
   id="line15" />
                    <line
   class="st6"
   x1="50.810001"
   x2="50.279999"
   y1="17.290001"
   y2="17.290001"
   id="line16" />
                    <line
   class="st6"
   x1="50.099998"
   x2="50.279999"
   y1="17.5"
   y2="17.290001"
   id="line17" />
                    <line
   class="st6"
   x1="43.32"
   x2="43.139999"
   y1="20.889999"
   y2="21.1"
   id="line18" />
                    <line
   class="st6"
   x1="43.32"
   x2="50.099998"
   y1="20.889999"
   y2="20.889999"
   id="line19" />
                    <line
   class="st6"
   x1="43.32"
   x2="43.139999"
   y1="17.5"
   y2="17.290001"
   id="line20" />
                    <line
   class="st6"
   x1="43.32"
   x2="50.099998"
   y1="17.5"
   y2="17.5"
   id="line21" />
                    <line
   class="st6"
   x1="42.610001"
   x2="43.139999"
   y1="21.1"
   y2="21.1"
   id="line22" />
                    <line
   class="st6"
   x1="42.610001"
   x2="43.139999"
   y1="17.290001"
   y2="17.290001"
   id="line23" />
                    <line
   class="st6"
   x1="42.25"
   x2="42.25"
   y1="17.709999"
   y2="20.68"
   id="line24" />
                    <rect
   class="st7"
   height="1.02"
   width="1.21"
   x="41.040001"
   y="19.700001"
   id="rect24" />
                    <rect
   class="st7"
   height="1.02"
   width="1.21"
   x="51.169998"
   y="19.700001"
   id="rect25" />
                </g>
            </g>
            <g
   id="g29">
                <g
   id="g28">
                    <g
   id="g27" />
                </g>
            </g>
        </g>
    </g><g
     gorn="0.7"
     id="R2"
     transform="rotate(-90,49.015,35.35)">
        <g
   id="g30">
            <path
   class="st2"
   d="m 47.05,35.58 v 1.35 m 0,-1.35 h 0.58 l 0.19,0.06 0.07,0.06 0.06,0.13 v 0.13 l -0.06,0.13 -0.07,0.06 -0.19,0.06 h -0.58 m 0.46,0.02 0.45,0.71 m 0.48,-1.03 v -0.06 l 0.06,-0.13 0.06,-0.06 0.13,-0.06 h 0.26 l 0.13,0.06 0.06,0.06 0.06,0.13 v 0.13 l -0.06,0.13 -0.13,0.19 -0.65,0.64 h 0.91"
   id="path29" />
        </g>
        <g
   id="g50">
            <g
   id="g46">
                <g
   id="g45">
                    <path
   class="st5"
   d="m 46.26,37.7 c 0,0.2 0.19,0.36 0.42,0.36"
   id="path30" />
                    <path
   class="st5"
   d="m 49.65,38.06 c 0.23,0 0.42,-0.16 0.42,-0.36 v 0"
   id="path31" />
                    <path
   class="st5"
   d="m 50.07,29.5 c 0,-0.2 -0.19,-0.36 -0.42,-0.36 v 0"
   id="path32" />
                    <path
   class="st5"
   d="m 46.69,29.14 c -0.23,0 -0.42,0.16 -0.42,0.36"
   id="path33" />
                    <line
   class="st6"
   x1="49.650002"
   x2="46.689999"
   y1="38.060001"
   y2="38.060001"
   id="line33" />
                    <line
   class="st6"
   x1="46.259998"
   x2="46.259998"
   y1="37.700001"
   y2="37.169998"
   id="line34" />
                    <line
   class="st6"
   x1="46.48"
   x2="46.259998"
   y1="36.990002"
   y2="37.169998"
   id="line35" />
                    <line
   class="st6"
   x1="50.07"
   x2="50.07"
   y1="37.700001"
   y2="37.169998"
   id="line36" />
                    <line
   class="st6"
   x1="49.860001"
   x2="50.07"
   y1="36.990002"
   y2="37.169998"
   id="line37" />
                    <line
   class="st6"
   x1="46.48"
   x2="46.259998"
   y1="30.209999"
   y2="30.030001"
   id="line38" />
                    <line
   class="st6"
   x1="46.48"
   x2="46.48"
   y1="30.209999"
   y2="36.990002"
   id="line39" />
                    <line
   class="st6"
   x1="49.860001"
   x2="50.07"
   y1="30.209999"
   y2="30.030001"
   id="line40" />
                    <line
   class="st6"
   x1="49.860001"
   x2="49.860001"
   y1="30.209999"
   y2="36.990002"
   id="line41" />
                    <line
   class="st6"
   x1="46.259998"
   x2="46.259998"
   y1="29.5"
   y2="30.030001"
   id="line42" />
                    <line
   class="st6"
   x1="50.07"
   x2="50.07"
   y1="29.5"
   y2="30.030001"
   id="line43" />
                    <line
   class="st6"
   x1="49.650002"
   x2="46.689999"
   y1="29.139999"
   y2="29.139999"
   id="line44" />
                    <rect
   class="st7"
   height="1.21"
   width="1.02"
   x="46.639999"
   y="27.93"
   id="rect44" />
                    <rect
   class="st7"
   height="1.21"
   width="1.02"
   x="46.639999"
   y="38.060001"
   id="rect45" />
                </g>
            </g>
            <g
   id="g49">
                <g
   id="g48">
                    <g
   id="g47" />
                </g>
            </g>
        </g>
    </g><g
     gorn="0.8"
     id="R3"
     transform="rotate(-90,49.015,35.35)">
        <g
   id="g51">
            <path
   class="st2"
   d="m 48.06,52.35 v 1.35 m 0,-1.35 h 0.58 l 0.19,0.06 0.07,0.06 0.06,0.13 v 0.13 L 48.9,52.86 48.83,52.92 48.64,53 h -0.58 m 0.45,0 0.45,0.71 m 0.55,-1.36 h 0.71 l -0.39,0.52 h 0.19 l 0.13,0.06 0.08,0.07 0.07,0.19 v 0.13 l -0.07,0.19 -0.13,0.13 -0.2,0.06 h -0.19 l -0.19,-0.06 -0.06,-0.06 -0.07,-0.13"
   id="path50" />
        </g>
        <g
   id="g71">
            <g
   id="g67">
                <g
   id="g66">
                    <path
   class="st5"
   d="m 50.83,54.82 c 0.2,0 0.36,-0.19 0.36,-0.42"
   id="path51" />
                    <path
   class="st5"
   d="m 51.19,51.44 c 0,-0.23 -0.16,-0.42 -0.36,-0.42 v 0"
   id="path52" />
                    <path
   class="st5"
   d="m 42.63,51.02 c -0.2,0 -0.36,0.19 -0.36,0.42 v 0"
   id="path53" />
                    <path
   class="st5"
   d="m 42.27,54.4 c 0,0.23 0.16,0.42 0.36,0.42"
   id="path54" />
                    <line
   class="st6"
   x1="51.189999"
   x2="51.189999"
   y1="51.439999"
   y2="54.400002"
   id="line54" />
                    <line
   class="st6"
   x1="50.830002"
   x2="50.299999"
   y1="54.82"
   y2="54.82"
   id="line55" />
                    <line
   class="st6"
   x1="50.119999"
   x2="50.299999"
   y1="54.610001"
   y2="54.82"
   id="line56" />
                    <line
   class="st6"
   x1="50.830002"
   x2="50.299999"
   y1="51.02"
   y2="51.02"
   id="line57" />
                    <line
   class="st6"
   x1="50.119999"
   x2="50.299999"
   y1="51.23"
   y2="51.02"
   id="line58" />
                    <line
   class="st6"
   x1="43.34"
   x2="43.16"
   y1="54.610001"
   y2="54.82"
   id="line59" />
                    <line
   class="st6"
   x1="43.34"
   x2="50.119999"
   y1="54.610001"
   y2="54.610001"
   id="line60" />
                    <line
   class="st6"
   x1="43.34"
   x2="43.16"
   y1="51.23"
   y2="51.02"
   id="line61" />
                    <line
   class="st6"
   x1="43.34"
   x2="50.119999"
   y1="51.23"
   y2="51.23"
   id="line62" />
                    <line
   class="st6"
   x1="42.630001"
   x2="43.16"
   y1="54.82"
   y2="54.82"
   id="line63" />
                    <line
   class="st6"
   x1="42.630001"
   x2="43.16"
   y1="51.02"
   y2="51.02"
   id="line64" />
                    <line
   class="st6"
   x1="42.27"
   x2="42.27"
   y1="51.439999"
   y2="54.400002"
   id="line65" />
                    <rect
   class="st7"
   height="1.02"
   width="1.21"
   x="41.060001"
   y="53.43"
   id="rect65" />
                    <rect
   class="st7"
   height="1.02"
   width="1.21"
   x="51.189999"
   y="53.43"
   id="rect66" />
                </g>
            </g>
            <g
   id="g70">
                <g
   id="g69">
                    <g
   id="g68" />
                </g>
            </g>
        </g>
    </g><g
     gorn="0.9"
     id="Male_Pin_Holes"
     transform="rotate(-90,49.015,35.35)">
        <g
   id="g72">
            <polygon
   class="st8"
   points="33.74,22.29 38.84,22.29 38.84,27.39 33.74,27.39 "
   id="polygon71" />
        </g>
        <g
   id="g73">
            <circle
   class="st8"
   cx="36.290001"
   cy="32.040001"
   id="ellipse72"
   r="2.55" />
        </g>
        <g
   id="g74">
            <circle
   class="st8"
   cx="36.290001"
   cy="39.240002"
   id="ellipse73"
   r="2.55" />
        </g>
        <g
   id="g75">
            <circle
   class="st8"
   cx="36.290001"
   cy="46.439999"
   id="ellipse74"
   r="2.55" />
        </g>
    </g><g
     gorn="0.10"
     id="Male_Pin"
     transform="rotate(-90,49.015,35.35)">
        <g
   id="g81">
            <g
   id="g78">
                <g
   id="g76">
                    <polygon
   class="st9"
   points="25.76,33.26 7.78,33.26 5.76,32.7 5.76,31.52 7.78,30.96 25.76,30.96 "
   id="polygon75" />
                    <polygon
   class="st10"
   gorn="0.10.0.0.0.1"
   id="connector1pin"
   points="5.76,31.52 5.76,32.7 6.32,32.86 6.32,31.36 " />
                </g>
                <polygon
   class="st9"
   points="28.24,33.26 35.37,33.26 35.37,30.96 28.24,30.96 "
   id="polygon76" />
                <polygon
   class="st11"
   points="36.08,33.26 36.53,33.26 36.53,30.96 36.08,30.96 "
   id="polygon77" />
                <polygon
   class="st10"
   points="35.37,33.26 36.06,33.26 36.06,30.96 35.37,30.96 "
   id="polygon78" />
            </g>
            <g
   id="g80">
                <rect
   class="st12"
   height="5.1500001"
   width="6.1700001"
   x="24.27"
   y="29.530001"
   id="rect78" />
                <polygon
   class="st13"
   points="30.44,34.69 24.27,34.69 24.27,35.71 30.44,35.71 "
   id="polygon79" />
                <polygon
   class="st14"
   points="24.27,29.53 30.44,29.53 30.44,28.51 24.27,28.51 "
   id="polygon80" />
            </g>
        </g>
        <g
   id="g87">
            <g
   id="g84">
                <g
   id="g82">
                    <polygon
   class="st9"
   points="25.76,47.66 7.78,47.66 5.76,47.1 5.76,45.92 7.78,45.36 25.76,45.36 "
   id="polygon81" />
                    <polygon
   class="st10"
   gorn="0.10.1.0.0.1"
   id="connector3pin"
   points="5.76,45.92 5.76,47.1 6.32,47.25 6.32,45.76 " />
                </g>
                <polygon
   class="st9"
   points="28.24,47.66 35.37,47.66 35.37,45.36 28.24,45.36 "
   id="polygon82" />
                <polygon
   class="st11"
   points="36.08,47.66 36.53,47.66 36.53,45.36 36.08,45.36 "
   id="polygon83" />
                <polygon
   class="st10"
   points="35.37,47.66 36.06,47.66 36.06,45.36 35.37,45.36 "
   id="polygon84" />
            </g>
            <g
   id="g86">
                <rect
   class="st12"
   height="5.1500001"
   width="6.1700001"
   x="24.27"
   y="43.93"
   id="rect84" />
                <polygon
   class="st13"
   points="30.44,49.09 24.27,49.09 24.27,50.11 30.44,50.11 "
   id="polygon85" />
                <polygon
   class="st14"
   points="24.27,43.93 30.44,43.93 30.44,42.91 24.27,42.91 "
   id="polygon86" />
            </g>
        </g>
        <g
   id="g93">
            <g
   id="g90">
                <g
   id="g88">
                    <polygon
   class="st9"
   points="25.76,40.46 7.78,40.46 5.76,39.9 5.76,38.72 7.78,38.16 25.76,38.16 "
   id="polygon87" />
                    <polygon
   class="st10"
   gorn="0.10.2.0.0.1"
   id="connector2pin"
   points="5.76,38.72 5.76,39.9 6.32,40.06 6.32,38.56 " />
                </g>
                <polygon
   class="st9"
   points="28.24,40.46 35.37,40.46 35.37,38.16 28.24,38.16 "
   id="polygon88" />
                <polygon
   class="st11"
   points="36.08,40.48 36.53,40.48 36.53,38.19 36.08,38.19 "
   id="polygon89" />
                <polygon
   class="st10"
   points="35.37,40.48 36.06,40.48 36.06,38.19 35.37,38.19 "
   id="polygon90" />
            </g>
            <g
   id="g92">
                <rect
   class="st12"
   height="5.1500001"
   width="6.1700001"
   x="24.27"
   y="36.73"
   id="rect90" />
                <polygon
   class="st13"
   points="30.44,41.89 24.27,41.89 24.27,42.91 30.44,42.91 "
   id="polygon91" />
                <polygon
   class="st14"
   points="24.27,36.73 30.44,36.73 30.44,35.71 24.27,35.71 "
   id="polygon92" />
            </g>
        </g>
        <g
   id="g99">
            <g
   id="g96">
                <g
   id="g94">
                    <polygon
   class="st9"
   points="25.76,26.05 7.78,26.05 5.76,25.49 5.76,24.31 7.78,23.75 25.76,23.75 "
   id="polygon93" />
                    <polygon
   class="st10"
   gorn="0.10.3.0.0.1"
   id="connector0pin"
   points="5.76,24.31 5.76,25.49 6.32,25.65 6.32,24.16 " />
                </g>
                <polygon
   class="st9"
   points="28.24,26.05 35.37,26.05 35.37,23.75 28.24,23.75 "
   id="polygon94" />
                <polygon
   class="st11"
   points="36.08,26.05 36.53,26.05 36.53,23.75 36.08,23.75 "
   id="polygon95" />
                <polygon
   class="st10"
   points="35.37,26.05 36.06,26.05 36.06,23.75 35.37,23.75 "
   id="polygon96" />
            </g>
            <g
   id="g98">
                <rect
   class="st12"
   height="5.1500001"
   width="6.1700001"
   x="24.27"
   y="22.33"
   id="rect96" />
                <polygon
   class="st13"
   points="30.44,27.48 24.27,27.48 24.27,28.5 30.44,28.5 "
   id="polygon97" />
                <polygon
   class="st14"
   points="24.27,22.33 30.44,22.33 30.44,21.3 24.27,21.3 "
   id="polygon98" />
            </g>
        </g>
    </g><g
     gorn="0.11"
     id="Middle_Male_Pins"
     transform="rotate(-90,49.015,35.35)">
        <g
   id="g105">
            <g
   id="g104">
                <g
   id="g100">
                    <circle
   class="st8"
   cx="67.379997"
   cy="35.279999"
   r="0.99000001"
   id="circle99" />
                </g>
                <g
   id="g101">
                    <circle
   class="st8"
   cx="63.689999"
   cy="35.279999"
   r="0.99000001"
   id="circle100" />
                </g>
                <g
   id="g102">
                    <circle
   class="st8"
   cx="60.009998"
   cy="35.279999"
   r="0.99000001"
   id="circle101" />
                </g>
                <g
   id="g103">
                    <circle
   class="st8"
   cx="56.32"
   cy="35.279999"
   r="0.99000001"
   id="circle102" />
                </g>
            </g>
        </g>
        <g
   transform="matrix(0.999998,0,0,-0.999998,5.16408,860.569)"
   id="g112">
            <g
   id="g111">
                <g
   id="g110">
                    <g
   id="g109">
                        <g
   gorn="0.11.1.0.0.0.0"
   id="g108">
                            <path
   class="st15"
   d="m 61.49,825.94 h 1.45 v -1.45 h -1.45 z"
   id="path105" />
                            <path
   class="st15"
   d="M 59.25,824.5 H 57.8 v 1.45 h 1.45 z"
   id="path106" />
                            <path
   class="st15"
   d="m 55.57,826.01 v -1.45 h -1.45 v 1.45 z"
   id="path107" />
                            <path
   class="st15"
   d="m 51.88,826.02 v -1.45 h -1.45 v 1.45 z"
   id="path108" />
                        </g>
                    </g>
                </g>
            </g>
        </g>
    </g><g
     transform="rotate(-90,52.268,24.897)"
     id="g122">
        <g
   id="g121">
            <g
   id="g120">
                <g
   id="g119">
                    <g
   id="g118">
                        <circle
   class="st20"
   cx="54.400002"
   cy="22.25"
   r="7.6999998"
   id="circle117" />
                        <circle
   class="st21"
   cx="54.389999"
   cy="21.84"
   r="7.3600001"
   id="circle118" />
                        <path
   class="st22"
   d="m 54.39,12.37 c -4.07,0 -7.36,3.3 -7.36,7.36 0,4.07 3.3,7.36 7.36,7.36 4.07,0 7.36,-3.3 7.36,-7.36 0,-4.06 -3.3,-7.36 -7.36,-7.36 z m 0.01,10.11 c -1.52,0 -2.75,-1.23 -2.75,-2.75 0,-1.52 1.23,-2.75 2.75,-2.75 1.52,0 2.75,1.23 2.75,2.75 0,1.52 -1.23,2.75 -2.75,2.75 z"
   id="path118" />
                    </g>
                </g>
            </g>
        </g>
    </g><g
     id="g123"
     transform="rotate(-90,49.015,35.35)">
        <path
   class="st2"
   d="m 70.24,38.23 v 1.35 m 0,0 h 0.77 m 0.43,-1.35 v 1.35 m 0,-1.35 h 0.84 m -0.84,0.65 h 0.52 m -0.52,0.7 h 0.84 m 0.42,-1.35 v 1.35 m 0,-1.35 h 0.45 l 0.19,0.06 0.13,0.13 0.06,0.13 0.07,0.19 v 0.32 l -0.07,0.19 -0.06,0.13 -0.13,0.13 -0.19,0.06 H 72.7 m 1.33,-1.08 0.13,-0.06 0.19,-0.19 v 1.35"
   id="path122" />
    </g></g>
</svg>
