<?xml version='1.0' encoding='utf-8'?>
<!DOCTYPE svg>
<svg xmlns="http://www.w3.org/2000/svg" height="0.917024in" version="1.1" viewBox="0 0 113.976032 91.7024" width="1.13976032in" x="0"  y="0">
    <desc>
        <referenceFile>servo.svg</referenceFile>
    </desc>
    <g transform="translate(-0.555968,45.0334)" >
        <g gorn="0.0.0" id="breadboard" >
            <rect fill="none" gorn="0.0.0.0" height="1" id="connector0pin" width="1" x="101.453"  y="27.986"/>
            <rect fill="none" gorn="0.0.0.1" height="1" id="connector1pin" width="1" x="101.562"  y="25.163"/>
            <rect fill="none" gorn="0.0.0.2" height="1" id="connector2pin" width="1" x="101.453"  y="22.38"/>
            <line fill="none" gorn="0.0.0.3" id="connector0leg" stroke="#000000" stroke-linecap="round" stroke-width="3" x1="112.353" x2="113.976032"  y1="38.406" y2="39.406"/>
            <line fill="none" gorn="0.0.0.4" id="connector1leg" stroke="#FF0000" stroke-linecap="round" stroke-width="3" x1="112.667" x2="113.976032"  y1="29.063" y2="29.406"/>
            <line fill="none" gorn="0.0.0.5" id="connector2leg" stroke="#FFFF00" stroke-linecap="round" stroke-width="3" x1="112.506" x2="113.976032"  y1="19.68" y2="19.406"/>
            <path d="M101.453,27.986c0,0,-7.079-1.869,10.900,10.42" fill="none" gorn="0.0.0.6" id="path7" stroke="#000000" stroke-width="3" />
            <path d="M101.562,25.163c5.604,0,5.705,1.629,11.105,3.9" fill="none" gorn="0.0.0.7" id="path9" stroke="#FF0000" stroke-width="3" />
            <path d="M101.453,22.38c7.475,0,10.553,-4.412,11.053,-1.3" fill="none" gorn="0.0.0.8" id="path11" stroke="#FFFF00" stroke-width="3" />
            <polygon fill="#333333" gorn="0.0.0.9" id="polygon13" points="0.556,9.302 17.372,9.302 17.372,-9.384 97.717,-9.384 97.717,9.302 114.532,9.302    114.532,11.169 97.717,11.169 97.717,46.669 17.372,46.669 17.372,11.169 0.556,11.169  " />
            <polygon gorn="0.0.0.10" id="polygon15" points="11.766,11.169 17.372,11.169 17.372,46.669 11.766,41.065  " />
            <polygon fill="#999999" gorn="0.0.0.11" id="polygon17" points="17.372,9.302 0.556,9.302 0.556,-0.042 11.766,-0.042 11.766,3.695  " />
            <polygon fill="#999999" gorn="0.0.0.12" id="polygon19" points="17.372,-9.384 11.766,-14.989 11.766,-26.2 17.372,-31.805 97.717,-31.805    103.321,-26.2 103.321,-14.989 97.717,-9.384  " />
            <polygon fill="#666666" gorn="0.0.0.13" id="polygon21" points="103.321,11.169 97.717,11.169 97.717,46.669 103.321,41.065  " />
            <polygon fill="#999999" gorn="0.0.0.14" id="polygon23" points="97.717,9.302 114.533,9.302 114.533,-0.042 103.321,-0.042 103.321,3.695  " />
            <polygon gorn="0.0.0.15" id="polygon25" points="11.766,-14.989 17.372,-9.384 17.372,9.302 11.766,3.695  " />
            <polygon fill="#666666" gorn="0.0.0.16" id="polygon27" points="103.321,-14.989 97.717,-9.384 97.717,9.302 103.321,3.695  " />
            <path d="M44.471-17.606c-6.562,3.61-13.786,1.541-16.543-0.162C25.17-19.471,8.869-33.338,6.681-34.717   c-2.19-1.379-1.947-3.32-1.947-6.131c0-3.577,1.784,2.676,5.516,4.379c3.729,1.703,37.683,5.893,37.683,12.11   C47.931-22.467,48.688-19.926,44.471-17.606z" fill="#CCCCCC" gorn="0.0.0.17" id="path29" />
            <path d="M44.471-19.52c-6.244,4.136-13.786,1.541-16.543-0.163C25.17-21.386,8.869-35.253,6.681-36.632   c-2.19-1.378-3.082-5.433-0.081-7.379c3-1.946,7.136-0.812,10.866,0.892c3.73,1.703,19.383,8.271,24.734,11.435   C47.553-28.522,50.717-23.656,44.471-19.52z M11.654-38.362c2.628,0,4.759-1.065,4.759-2.379s-2.131-2.378-4.759-2.378   c-2.628,0-4.758,1.064-4.758,2.378S9.026-38.362,11.654-38.362z" fill="#FFFFFF" gorn="0.0.0.18" id="path31" />
            <g gorn="0.0.0.19" id="g33" >
                <path d="M16.35-40.229c-0.472-1.065-2.369-1.862-4.643-1.862c-2.272,0-4.231,0.796-4.703,1.861    l0.004,0.001c-0.072-0.165-0.112-0.335-0.112-0.511c0-1.314,2.13-2.378,4.758-2.378c2.628,0,4.759,1.064,4.759,2.378    c0,0.176,0,0.356-0.072,0.521L16.35-40.229z" fill="#CCCCCC" gorn="0.0.0.19.0" id="path35" />
            </g>
            <g gorn="0.0.0.20" id="g37" >
                <ellipse cx="36.092" cy="-25.386" fill="#999999" gorn="0.0.0.20.0" id="ellipse39" rx="8.002" ry="4.465" />
                <g gorn="0.0.0.20.1" id="g41" >
                    <path d="M28.234-25.429c0.794,1.919,3.985,3.356,7.807,3.356c3.822,0,7.116-1.436,7.912-3.356h-0.008     c0.121,0.296,0.188,0.604,0.188,0.92c0,2.368-3.582,4.288-8.002,4.288c-4.42,0-8.002-1.92-8.002-4.288     c0-0.316-0.001-0.642,0.12-0.938L28.234-25.429z" fill="#666666" gorn="0.0.0.20.1.0" id="path43" />
                </g>
            </g>
            <g gorn="0.0.0.21" id="g45" >
                <path d="M56.535-23.224v1.136h3.406v1.135h1.135v1.135h-1.135v1.136h-5.678v-1.136h4.541v-1.135    h-3.406v-1.135h-1.135v-1.136h1.135v-1.135h5.678v1.135H56.535z" fill="#FFCC33" gorn="0.0.0.21.0" id="path47" />
                <path d="M69.023-24.359v1.135h-4.541v1.136h3.406v1.135h-3.406v1.135h4.541v1.136h-6.812v-5.677    H69.023L69.023-24.359z" fill="#FFCC33" gorn="0.0.0.21.1" id="path49" />
                <path d="M75.836-23.224h1.137v2.271h-1.137v1.135h1.137v1.136h-3.406v-1.136H72.43v1.136h-2.271    v-5.677h5.677L75.836-23.224L75.836-23.224z M74.7-23.224H72.43v2.271H74.7V-23.224z" fill="#FFCC33" gorn="0.0.0.21.2" id="path51" />
                <path d="M84.919-24.359v2.271h-1.135v2.27h-1.138v1.136h-2.271v-1.136h-1.135v-2.27h-1.136v-2.271    h2.271v2.271h2.271v-2.271H84.919z" fill="#FFCC33" gorn="0.0.0.21.3" id="path53" />
                <path d="M87.189-18.682v-1.136h-1.135v-3.406h1.135v-1.135h4.541v1.135h1.136v3.406H91.73v1.136    H87.189L87.189-18.682z M90.596-19.818v-3.406h-2.271v3.406H90.596z" fill="#FFCC33" gorn="0.0.0.21.4" id="path55" />
            </g>
        </g>
    </g>
</svg>
