<?xml version="1.0" encoding="UTF-8" standalone="no"?>
<svg
   width="72"
   height="72"
   viewBox="0 0 72 72"
   fill="none"
   version="1.1"
   id="svg1"
   sodipodi:docname="l_ble.svg"
   xml:space="preserve"
   inkscape:version="1.4.2 (ebf0e940d0, 2025-05-08)"
   xmlns:inkscape="http://www.inkscape.org/namespaces/inkscape"
   xmlns:sodipodi="http://sodipodi.sourceforge.net/DTD/sodipodi-0.dtd"
   xmlns="http://www.w3.org/2000/svg"
   xmlns:svg="http://www.w3.org/2000/svg"><defs
     id="defs1" /><sodipodi:namedview
     id="namedview1"
     pagecolor="#000000"
     bordercolor="#000000"
     borderopacity="0.25"
     inkscape:showpageshadow="2"
     inkscape:pageopacity="0.0"
     inkscape:pagecheckerboard="0"
     inkscape:deskcolor="#d1d1d1"
     inkscape:zoom="2.6656397"
     inkscape:cx="76.529472"
     inkscape:cy="-11.629479"
     inkscape:window-width="1920"
     inkscape:window-height="1008"
     inkscape:window-x="0"
     inkscape:window-y="0"
     inkscape:window-maximized="1"
     inkscape:current-layer="svg1" /><rect
     width="72"
     height="72"
     fill="none"
     id="rect1" /><path
     d="M 38.679687,20.683594 37.003906,22.359375 36.992186,19 Z m -1.6875,8.585937 1.683594,-1.683593 L 37,25.910156 Z M 43.5,24.132813 C 43.5,32.164063 40.691406,34 36.269531,34 31.847656,34 28.5,32.164063 28.5,24.132813 28.5,16.101563 31.757812,14 36.179687,14 40.601562,14 43.5,16.105469 43.5,24.132813 Z m -6.191406,0 3.101562,-3.460938 -4.886719,-5.246094 v 6.910157 l -2.882812,-2.882813 -1.054688,1.050781 3.621094,3.632813 -3.621094,3.632812 1.050782,1.050782 2.882812,-2.882813 0.08984,6.640625 4.976562,-4.980469 z"
     id="path1-7"
     style="fill:#ffffff;stroke-width:0.0390625" /></svg>
