<?xml version="1.0" encoding="UTF-8" standalone="no"?>
<svg
   viewBox="0 0 20.000687 16.773726"
   version="1.1"
   id="svg1"
   sodipodi:docname="l_lists.svg"
   width="20.000687"
   height="16.773726"
   inkscape:version="1.4.2 (ebf0e940d0, 2025-05-08)"
   xmlns:inkscape="http://www.inkscape.org/namespaces/inkscape"
   xmlns:sodipodi="http://sodipodi.sourceforge.net/DTD/sodipodi-0.dtd"
   xmlns="http://www.w3.org/2000/svg"
   xmlns:svg="http://www.w3.org/2000/svg">
  <defs
     id="defs1" />
  <sodipodi:namedview
     id="namedview1"
     pagecolor="#000000"
     bordercolor="#000000"
     borderopacity="0.25"
     inkscape:showpageshadow="2"
     inkscape:pageopacity="0.0"
     inkscape:pagecheckerboard="0"
     inkscape:deskcolor="#d1d1d1"
     inkscape:zoom="1.5371094"
     inkscape:cx="230.30241"
     inkscape:cy="242.0127"
     inkscape:window-width="1920"
     inkscape:window-height="1008"
     inkscape:window-x="0"
     inkscape:window-y="0"
     inkscape:window-maximized="1"
     inkscape:current-layer="svg1" />
  <!--!Font Awesome Free 6.5.1 by @fontawesome - https://fontawesome.com License - https://fontawesome.com/license/free Copyright 2024 Fonticons, Inc.-->
  <path
     d="m 1.9366742,3.87086 a 1.93543,1.93543 0 1 0 0,-3.87086 1.93543,1.93543 0 1 0 0,3.87086 z m 5.161147,-3.225717 c -0.713689,0 -1.290287,0.576597 -1.290287,1.290287 0,0.71369 0.576598,1.290286 1.290287,1.290286 H 18.710399 c 0.71369,0 1.290287,-0.576596 1.290287,-1.290286 0,-0.71369 -0.576597,-1.290287 -1.290287,-1.290287 z m 0,6.451433 c -0.713689,0 -1.290287,0.576597 -1.290287,1.290287 0,0.713689 0.576598,1.290285 1.290287,1.290285 H 18.710399 c 0.71369,0 1.290287,-0.576596 1.290287,-1.290285 0,-0.71369 -0.576597,-1.290287 -1.290287,-1.290287 z m 0,6.451432 c -0.713689,0 -1.290287,0.576597 -1.290287,1.290287 0,0.71369 0.576598,1.290286 1.290287,1.290286 H 18.710399 c 0.71369,0 1.290287,-0.576596 1.290287,-1.290286 0,-0.71369 -0.576597,-1.290287 -1.290287,-1.290287 z m -5.161147,3.225717 a 1.9354299,1.9354299 0 1 0 0,-3.870859 1.9354299,1.9354299 0 1 0 0,3.870859 z m 1.93543,-8.386862 a 1.9354299,1.9354299 0 1 0 -3.87085898,0 1.9354299,1.9354299 0 1 0 3.87085898,0 z"
     id="path1"
     style="fill:#ffffff;stroke-width:0.0403215" />
</svg>
