<?xml version="1.0" encoding="UTF-8" standalone="no"?>
<svg
   width="20"
   height="20"
   viewBox="0 0 20 20"
   fill="none"
   version="1.1"
   id="svg1"
   sodipodi:docname="l_numbers.svg"
   inkscape:version="1.4.2 (ebf0e940d0, 2025-05-08)"
   xmlns:inkscape="http://www.inkscape.org/namespaces/inkscape"
   xmlns:sodipodi="http://sodipodi.sourceforge.net/DTD/sodipodi-0.dtd"
   xmlns="http://www.w3.org/2000/svg"
   xmlns:svg="http://www.w3.org/2000/svg">
  <defs
     id="defs1" />
  <sodipodi:namedview
     id="namedview1"
     pagecolor="#ffffff"
     bordercolor="#000000"
     borderopacity="0.25"
     inkscape:showpageshadow="2"
     inkscape:pageopacity="0.0"
     inkscape:pagecheckerboard="0"
     inkscape:deskcolor="#d1d1d1"
     inkscape:zoom="11.194444"
     inkscape:cx="33.766749"
     inkscape:cy="31.444169"
     inkscape:window-width="1920"
     inkscape:window-height="1008"
     inkscape:window-x="0"
     inkscape:window-y="0"
     inkscape:window-maximized="1"
     inkscape:current-layer="svg1" />
  <rect
     width="72"
     height="72"
     fill="none"
     id="rect1"
     x="-26"
     y="-14" />
  <path
     d="M 7,0 H 2 C 0.8954,0 0,0.8954 0,2 V 7 C 0,8.1046 0.8954,9 2,9 H 7 C 8.1046,9 9,8.1046 9,7 V 2 C 9,0.8954 8.1046,0 7,0 Z M 7,4 H 2 V 3 H 7 Z M 7,6 H 2 V 5 h 5 z m 11,5 c 1.1046,0 2,0.8954 2,2 v 5 c 0,1.1046 -0.8954,2 -2,2 h -5 c -1.1046,0 -2,-0.8954 -2,-2 v -5 c 0,-1.1046 0.8954,-2 2,-2 z M 16.295,13 14,15.4973 16.295,18 17,17.2257 15.415,15.4973 17,13.7688 Z M 18,0 c 1.1046,0 2,0.8954 2,2 v 5 c 0,1.1046 -0.8954,2 -2,2 H 13 C 11.8954,9 11,8.1046 11,7 V 2 C 11,0.8954 11.8954,0 13,0 Z M 14.705,2 14,2.7688 15.585,4.4973 14,6.2257 14.705,7 17,4.4973 Z M 7,11 H 2 c -1.1046,0 -2,0.8954 -2,2 v 5 c 0,1.1046 0.8954,2 2,2 h 5 c 1.1046,0 2,-0.8954 2,-2 V 13 C 9,11.8954 8.1046,11 7,11 Z m 0,5 H 5 v 2 H 4 V 16 H 2 v -1 h 2 v -2 h 1 v 2 h 2 z"
     fill="#ffffff"
     id="path1" />
</svg>
