<?xml version="1.0" encoding="UTF-8" standalone="no"?>
<svg
   width="72"
   height="72"
   viewBox="0 0 72 72"
   fill="none"
   version="1.1"
   id="svg1"
   sodipodi:docname="l_search.svg"
   xml:space="preserve"
   inkscape:version="1.4.2 (ebf0e940d0, 2025-05-08)"
   xmlns:inkscape="http://www.inkscape.org/namespaces/inkscape"
   xmlns:sodipodi="http://sodipodi.sourceforge.net/DTD/sodipodi-0.dtd"
   xmlns="http://www.w3.org/2000/svg"
   xmlns:svg="http://www.w3.org/2000/svg"><defs
     id="defs1" /><sodipodi:namedview
     id="namedview1"
     pagecolor="#000000"
     bordercolor="#000000"
     borderopacity="0.25"
     inkscape:showpageshadow="2"
     inkscape:pageopacity="0.0"
     inkscape:pagecheckerboard="0"
     inkscape:deskcolor="#d1d1d1"
     inkscape:zoom="4.4207985"
     inkscape:cx="36.192557"
     inkscape:cy="13.119802"
     inkscape:window-width="1920"
     inkscape:window-height="1008"
     inkscape:window-x="0"
     inkscape:window-y="0"
     inkscape:window-maximized="1"
     inkscape:current-layer="svg1" /><rect
     width="72"
     height="72"
     fill="none"
     id="rect1" /><path
     d="m 42.250789,22.1254 c 0,1.79305 -0.58206,3.44938 -1.56257,4.793201 l 4.94555,4.949459 c 0.48831,0.488311 0.48831,1.28131 0,1.769621 -0.4883,0.4883 -1.28131,0.4883 -1.76962,0 l -4.94555,-4.94946 c -1.34382,0.98051 -3.00015,1.56257 -4.7932,1.56257 -4.4885,0 -8.1254,-3.63689 -8.1254,-8.125391 0,-4.488499 3.6369,-8.1254 8.1254,-8.1254 4.4885,0 8.12539,3.6369 8.12539,8.1254 z m -8.12539,5.62527 c 3.10562,0 5.62527,-2.51965 5.62527,-5.62527 0,-3.105619 -2.51965,-5.62528 -5.62527,-5.62528 -3.10562,0 -5.62528,2.51966 -5.62528,5.62528 0,3.10562 2.51966,5.62527 5.62528,5.62527 z"
     id="path1-6"
     style="fill:#ffffff;stroke-width:0.0390644" /></svg>
