<?xml version="1.0" encoding="UTF-8" standalone="no"?>
<svg
   width="20.203993"
   height="18"
   viewBox="0 0 20.203993 18"
   fill="none"
   version="1.1"
   id="svg1"
   sodipodi:docname="l_variables.svg"
   inkscape:version="1.4.2 (ebf0e940d0, 2025-05-08)"
   xmlns:inkscape="http://www.inkscape.org/namespaces/inkscape"
   xmlns:sodipodi="http://sodipodi.sourceforge.net/DTD/sodipodi-0.dtd"
   xmlns="http://www.w3.org/2000/svg"
   xmlns:svg="http://www.w3.org/2000/svg">
  <defs
     id="defs1" />
  <sodipodi:namedview
     id="namedview1"
     pagecolor="#ffffff"
     bordercolor="#000000"
     borderopacity="0.25"
     inkscape:showpageshadow="2"
     inkscape:pageopacity="0.0"
     inkscape:pagecheckerboard="0"
     inkscape:deskcolor="#d1d1d1"
     inkscape:zoom="11.194444"
     inkscape:cx="10.094293"
     inkscape:cy="20.992556"
     inkscape:window-width="1920"
     inkscape:window-height="1008"
     inkscape:window-x="0"
     inkscape:window-y="0"
     inkscape:window-maximized="1"
     inkscape:current-layer="svg1" />
  <rect
     width="72"
     height="72"
     fill="none"
     id="rect1"
     x="-25.898535"
     y="-15" />
  <path
     d="m 18.511465,0 c 1.39,2.71 1.94,5.84 1.59,9 -0.2,3.16 -1.3,6.29 -3.17,9 l -1.53,-1 c 1.61,-2.43 2.55,-5.2 2.7,-8 0.34,-2.8 -0.11,-5.57 -1.3,-8 z m -15.24,0 1.53,1 c -1.61,2.43 -2.55,5.2 -2.7,8 -0.34,2.8 0.12,5.57 1.3,8 l -1.69,1 C 0.31146498,15.29 -0.24853502,12.17 0.10146498,9 0.30146498,5.84 1.401465,2.71 3.271465,0 Z m 6.91,7.68 2.32,-3.23 h 2.53 l -3.78,5 2.2,4.92 h -2.26 l -1.38,-3.37 -2.43,3.33 h -2.52 l 3.9,-5.12 -2.13,-4.76 h 2.27 z"
     fill="#ffffff"
     id="path1" />
</svg>
