<?xml version="1.0" encoding="UTF-8" standalone="no"?>
<svg
   viewBox="0 0 45 25"
   height="25mm"
   width="45mm"
   font-family="monospace"
   version="1.1"
   id="svg24"
   sodipodi:docname="blink_distance.svg"
   inkscape:version="1.3.2 (091e20ef0f, 2023-11-25)"
   xmlns:inkscape="http://www.inkscape.org/namespaces/inkscape"
   xmlns:sodipodi="http://sodipodi.sourceforge.net/DTD/sodipodi-0.dtd"
   xmlns:xlink="http://www.w3.org/1999/xlink"
   xmlns="http://www.w3.org/2000/svg"
   xmlns:svg="http://www.w3.org/2000/svg">
  <sodipodi:namedview
     id="namedview24"
     pagecolor="#ffffff"
     bordercolor="#000000"
     borderopacity="0.25"
     inkscape:showpageshadow="2"
     inkscape:pageopacity="0.0"
     inkscape:pagecheckerboard="0"
     inkscape:deskcolor="#d1d1d1"
     inkscape:document-units="mm"
     inkscape:zoom="2.0211227"
     inkscape:cx="132.84696"
     inkscape:cy="84.359055"
     inkscape:window-width="1920"
     inkscape:window-height="1008"
     inkscape:window-x="0"
     inkscape:window-y="0"
     inkscape:window-maximized="1"
     inkscape:current-layer="svg24" />
  <defs
     id="defs7">
    <pattern
       patternUnits="userSpaceOnUse"
       width="2"
       height="2"
       id="checkerboard">
      <path
         d="M0 0h1v1H0zM1 1h1v1H1z"
         id="path1" />
    </pattern>
    <radialGradient
       id="grad1"
       cx="8.96"
       cy="10.04"
       r="3.58"
       gradientUnits="userSpaceOnUse">
      <stop
         stop-color="#777"
         offset="0"
         id="stop1" />
      <stop
         stop-color="#b9b9b9"
         offset="1"
         id="stop2" />
    </radialGradient>
    <g
       id="sensor-unit">
      <circle
         cx="8.98"
         cy="10"
         r="8.61"
         fill="#dcdcdc"
         id="circle2" />
      <circle
         cx="8.98"
         cy="10"
         r="7.17"
         fill="#222"
         id="circle3" />
      <circle
         cx="8.98"
         cy="10"
         r="5.53"
         fill="#777"
         fill-opacity=".992"
         id="circle4" />
      <circle
         cx="8.98"
         cy="10"
         r="3.59"
         fill="url(#grad1)"
         id="circle5" />
      <circle
         cx="8.99"
         cy="10"
         r=".277"
         fill="#777"
         fill-opacity=".818"
         id="circle6" />
      <circle
         cx="8.98"
         cy="10"
         r="5.53"
         fill="url(#checkerboard)"
         opacity=".397"
         id="circle7" />
    </g>
  </defs>
  <g
     id="g24"
     transform="scale(1.0069735)">
    <path
       d="M 0,0 V 18.466592 H 39.669498 V 0 Z m 1.2535561,0.4090366 a 0.88154439,0.88154439 0 0 1 0.00353,0 A 0.88154439,0.88154439 0 0 1 2.1386267,1.290581 0.88154439,0.88154439 0 0 1 1.2570823,2.1721254 0.88154439,0.88154439 0 0 1 0.37553791,1.290581 0.88154439,0.88154439 0 0 1 1.2535561,0.4090366 Z m 36.9860769,0 a 0.88154439,0.88154439 0 0 1 0.0035,0 0.88154439,0.88154439 0 0 1 0.88157,0.8815444 A 0.88154439,0.88154439 0 0 1 38.243159,2.1721254 0.88154439,0.88154439 0 0 1 37.361614,1.290581 0.88154439,0.88154439 0 0 1 38.239633,0.4090366 Z M 1.2535561,16.294466 a 0.88154439,0.88154439 0 0 1 0.00353,0 0.88154439,0.88154439 0 0 1 0.8815444,0.881545 0.88154439,0.88154439 0 0 1 -0.8815444,0.881544 0.88154439,0.88154439 0 0 1 -0.88154439,-0.881544 0.88154439,0.88154439 0 0 1 0.87801819,-0.881545 z m 36.9860769,0 a 0.88154439,0.88154439 0 0 1 0.0035,0 0.88154439,0.88154439 0 0 1 0.881544,0.881545 0.88154439,0.88154439 0 0 1 -0.881544,0.881544 0.88154439,0.88154439 0 0 1 -0.881545,-0.881544 0.88154439,0.88154439 0 0 1 0.878019,-0.881545 z"
       fill="#456f93"
       id="path7"
       style="stroke-width:0.881544" />
    <path
       d="M 13.481458,5.1905334 16.06791,2.6040821 v 2.7539447 l 2.595266,2.5943851 v 8.9415051 m 1.84948,-0.111956 v -2.18006 l -0.851571,-0.85069 V 2.7319061 l 2.271739,1.311738 4.179402,4.179402"
       fill="none"
       stroke="#355a7c"
       stroke-width="0.756365"
       id="path8" />
    <use
       xlink:href="#sensor-unit"
       id="use8"
       transform="scale(0.88154439)" />
    <use
       xlink:href="#sensor-unit"
       x="27.120001"
       id="use9"
       transform="scale(0.88154439)" />
    <g
       fill="none"
       stroke="#505132"
       stroke-width="0.368"
       id="g12"
       transform="scale(0.88154439)">
      <circle
         cx="43.400002"
         cy="1.46"
         r="1"
         id="circle9" />
      <circle
         cx="43.400002"
         cy="19.5"
         r="1"
         id="circle10" />
      <circle
         cx="1.4299999"
         cy="1.46"
         r="1"
         id="circle11" />
      <circle
         cx="1.4299999"
         cy="19.5"
         r="1"
         id="circle12" />
    </g>
    <rect
       ry="1.8247968"
       y="0.5518468"
       x="15.084106"
       height="3.6487122"
       width="9.0552244"
       fill="#878787"
       stroke="#424242"
       stroke-width="0.324408"
       id="rect12" />
    <g
       fill="#000000"
       id="g16"
       transform="scale(0.88154439)">
      <rect
         x="17.870001"
         y="18"
         ry="0.56800002"
         width="2.25"
         height="2.2709999"
         id="rect13" />
      <rect
         x="20.41"
         y="18"
         ry="0.56800002"
         width="2.25"
         height="2.2709999"
         id="rect14" />
      <rect
         x="22.950001"
         y="18"
         ry="0.56800002"
         width="2.25"
         height="2.2709999"
         id="rect15" />
      <rect
         x="25.49"
         y="18"
         ry="0.56800002"
         width="2.25"
         height="2.2709999"
         id="rect16" />
    </g>
    <g
       fill="#cccccc"
       stroke-linecap="round"
       stroke-width="0.21"
       id="g20"
       transform="scale(0.88154439)">
      <rect
         x="18.610001"
         y="19"
         width="0.75"
         height="7"
         rx="0.2"
         id="rect17" />
      <rect
         x="21.15"
         y="19"
         width="0.75"
         height="7"
         rx="0.2"
         id="rect18" />
      <rect
         x="23.690001"
         y="19"
         width="0.75"
         height="7"
         rx="0.2"
         id="rect19" />
      <rect
         x="26.23"
         y="19"
         width="0.75"
         height="7"
         rx="0.2"
         id="rect20" />
    </g>
    <text
       font-weight="400"
       font-size="1.9394px"
       fill="#e6e6e6"
       stroke-width="0.0484849"
       id="text20"><tspan
         y="7.0523553"
         x="15.515182"
         id="tspan20"
         style="stroke-width:0.0484849">HC-SR04</tspan></text>
    <text
       transform="rotate(-90)"
       font-weight="400"
       font-size="1.36639px"
       fill="#e6e6e6"
       stroke-width="0.0343802"
       id="text24"><tspan
         x="-15.507247"
         y="17.243891"
         id="tspan21"
         style="stroke-width:0.0343802">VCC</tspan><tspan
         x="-15.507247"
         y="19.483013"
         id="tspan22"
         style="stroke-width:0.0343802">TRIG</tspan><tspan
         x="-15.507247"
         y="21.722136"
         id="tspan23"
         style="stroke-width:0.0343802">ECHO</tspan><tspan
         x="-15.507247"
         y="23.961258"
         id="tspan24"
         style="stroke-width:0.0343802">GND</tspan></text>
  </g>
  <filter
     id="light1"
     x="-1.2"
     y="-1.2"
     height="3.4"
     width="3.4">
    <feGaussianBlur
       stdDeviation="2"
       id="feGaussianBlur1" />
  </filter>
  <filter
     id="light2"
     x="-0.48"
     y="-0.48"
     height="1.96"
     width="1.96">
    <feGaussianBlur
       stdDeviation="4"
       id="feGaussianBlur2" />
  </filter>
  <g
     id="g25"
     transform="matrix(2.2913249,0,0,2.2913249,-148.80622,-15.942876)">
    <rect
       x="81.097412"
       y="15.182321"
       width="0.5692246"
       height="2.6001399"
       fill="#8c8c8c"
       id="rect2"
       style="stroke-width:0.264583" />
    <path
       d="m 83.866831,17.798256 c 0,-0.310515 -0.229774,-0.664951 -0.500486,-0.900218 -0.110109,-0.09716 -0.317367,-0.26498 -0.317367,-0.377005 v -1.447429 h -0.571871 v 1.529344 c 0,0.280035 0.250698,0.49702 0.514932,0.727128 0.117539,0.09944 0.356817,0.330623 0.356817,0.468154"
       fill="#8c8c8c"
       id="path2"
       style="stroke-width:0.264583" />
    <path
       d="m 84.183273,13.229431 v -1.564375 c 0,-1.035368 -0.8382,-1.8754727 -1.874705,-1.8754727 -1.035183,0 -1.875288,0.8385707 -1.875288,1.8754727 v 3.611298 c 0.389943,0.436827 1.083945,0.728292 1.875288,0.728292 1.222242,0 2.214192,-0.692653 2.214192,-1.5503 v -0.403092 c -1.96e-4,-0.302313 -0.125529,-0.583116 -0.339461,-0.821823 z"
       opacity="0.3"
       id="path3"
       style="stroke-width:0.264583" />
    <path
       d="m 84.183273,13.229431 v -1.564375 c 0,-1.035368 -0.8382,-1.8754727 -1.874705,-1.8754727 -1.035183,0 -1.875288,0.8385707 -1.875288,1.8754727 v 3.611298 c 0.389943,0.436827 1.083945,0.728292 1.875288,0.728292 1.222242,0 2.214192,-0.692653 2.214192,-1.5503 v -0.403092 c -1.96e-4,-0.302313 -0.125529,-0.583116 -0.339461,-0.821823 z"
       fill="#e6e6e6"
       opacity="0.5"
       id="path4"
       style="stroke-width:0.264583" />
    <path
       d="m 84.183273,13.229431 v 0.821637 c 0,0.724668 -0.837618,1.313683 -1.874705,1.313683 -1.035183,5e-6 -1.875288,-0.58711 -1.875288,-1.313683 v 1.224915 c 0.389943,0.437013 1.083945,0.728292 1.875288,0.728292 1.222242,0 2.214192,-0.692652 2.214192,-1.550087 l -1.1e-5,-0.403093 c -1.85e-4,-0.302128 -0.125518,-0.58293 -0.33946,-0.821637 z"
       fill="#d1d1d1"
       opacity="0.9"
       id="path5"
       style="stroke-width:0.264583" />
    <g
       id="g7"
       transform="matrix(0.26458333,0,0,0.26458333,80.433333,9.7895833)">
      <path
         d="m 14.173,13.001 v 3.1054 c 0,2.7389 -3.1658,4.9651 -7.0855,4.9651 -3.9125,2e-5 -7.0877,-2.219 -7.0877,-4.9651 v 4.6296 c 1.4738,1.6517 4.0968,2.7526 7.0877,2.7526 4.6195,0 8.3686,-2.6179 8.3686,-5.8586 l -4e-5,-1.5235 c -7e-4,-1.1419 -0.4744,-2.2032 -1.283,-3.1054 z"
         opacity="0.7"
         id="path6" />
      <path
         d="m 14.173,13.001 v 3.1054 c 0,2.7389 -3.1658,4.9651 -7.0855,4.9651 -3.9125,2e-5 -7.0877,-2.219 -7.0877,-4.9651 v 3.1054 c 1.4738,1.6502 4.0968,2.7526 7.0877,2.7526 4.6195,0 8.3686,-2.6179 8.3686,-5.8586 -7.4e-4,-1.1412 -0.47444,-2.2025 -1.283,-3.1047 z"
         opacity="0.25"
         id="path7-3" />
      <ellipse
         cx="7.0876999"
         cy="16.106001"
         rx="7.0869999"
         ry="4.9608002"
         opacity="0.25"
         id="ellipse7" />
    </g>
    <polygon
       points="3.1961,16.107 3.1961,13.095 6.0156,13.095 10.012,8.8049 3.407,8.8049 2.2032,9.648 2.2032,16.107 "
       fill="#666666"
       id="polygon7"
       transform="matrix(0.26458333,0,0,0.26458333,80.433333,9.7895833)" />
    <polygon
       points="7.4117,13.095 11.06,13.095 11.06,16.107 11.974,16.107 11.974,8.5241 10.778,8.5241 11.215,9.0338 "
       fill="#666666"
       id="polygon8"
       transform="matrix(0.26458333,0,0,0.26458333,80.433333,9.7895833)" />
    <path
       d="m 84.183273,13.229431 v -1.564375 c 0,-1.035368 -0.8382,-1.8754727 -1.874705,-1.8754727 -1.035183,0 -1.875288,0.8385707 -1.875288,1.8754727 v 3.611298 c 0.389943,0.436827 1.083945,0.728292 1.875288,0.728292 1.222242,0 2.214192,-0.692653 2.214192,-1.5503 v -0.403092 c -1.96e-4,-0.302313 -0.125529,-0.583116 -0.339461,-0.821823 z"
       opacity="0.65"
       fill="#ff0000"
       id="path8-6"
       style="stroke-width:0.264583" />
    <g
       fill="#ffffff"
       id="g11"
       transform="matrix(0.26458333,0,0,0.26458333,80.433333,9.7895833)">
      <path
         d="M 10.388,3.7541 11.8244,3.4805 C 10.98272,2.3487 9.7422,1.5228 8.2827,1.242 l 0.25416,1.0807 c 0.76388,0.27072 1.4068,0.78048 1.8511,1.4314 z"
         opacity="0.5"
         id="path9" />
      <path
         d="m 0.76824,19.926 v 1.5199 c 0.64872,0.5292 1.4335,0.97632 2.3076,1.3169 v -1.525 C 2.19744,20.90156 1.41914,20.45586 0.76824,19.926 Z"
         opacity="0.5"
         id="path10" />
      <path
         d="m 11.073,20.21 c -0.2556,0.1224 -0.52992,0.22968 -0.80568,0.32976 -0.05832,0.01944 -0.11736,0.04032 -0.17784,0.05832 -0.56376,0.17928 -1.1614,0.31896 -1.795,0.39456 -0.07488,0.0094 -0.1512,0.01872 -0.22464,0.01944 -0.3204,0.03024 -0.64368,0.05832 -0.97056,0.05832 -0.14832,0 -0.30744,-0.01512 -0.4716,-0.02376 C 5.42748,20.98976 4.29708,20.732 3.33008,20.3072 l -2e-5,-8.3895 V 7.0923 c 0,-1.471 0.84816,-2.7295 2.0736,-3.3494 L 5.38134,3.68962 4.13354,2.17762 c -1.6697,1.003 -2.79,2.8224 -2.79,4.9118 v 11.905 C 1.29386,18.94474 1.03538,18.68554 0.8633,18.4645 l -0.30744,0.6876 c 1.4011,1.4818 3.8088,2.4617 6.5426,2.4617 1.6798,0 3.2371,-0.37368 4.5115,-1.0022 l -0.52704,-0.40896 -0.01006,0.0072 z"
         opacity="0.5"
         id="path11" />
    </g>
  </g>
  <g
     class="light"
     style="display:none"
     id="g13"
     transform="matrix(0.26458333,0,0,0.26458333,80.433333,9.7895833)">
    <circle
       cx="8"
       cy="10"
       filter="url(#light2)"
       fill="#ff8080"
       style="opacity:1"
       id="ellipse11"
       r="10" />
    <circle
       cx="8"
       cy="10"
       fill="#ffffff"
       filter="url(#light1)"
       id="ellipse12"
       r="2" />
    <circle
       cx="8"
       cy="10"
       fill="#ffffff"
       filter="url(#light1)"
       style="opacity:1"
       id="ellipse13"
       r="3" />
  </g>
</svg>
