<?xml version="1.0" encoding="UTF-8" standalone="no"?>
<svg
   width="15"
   height="20"
   viewBox="0 0 15 20"
   fill="none"
   version="1.1"
   id="svg1"
   sodipodi:docname="l_ble.svg"
   xml:space="preserve"
   inkscape:version="1.4.2 (ebf0e940d0, 2025-05-08)"
   xmlns:inkscape="http://www.inkscape.org/namespaces/inkscape"
   xmlns:sodipodi="http://sodipodi.sourceforge.net/DTD/sodipodi-0.dtd"
   xmlns="http://www.w3.org/2000/svg"
   xmlns:svg="http://www.w3.org/2000/svg"><defs
     id="defs1" /><sodipodi:namedview
     id="namedview1"
     pagecolor="#000000"
     bordercolor="#000000"
     borderopacity="0.25"
     inkscape:showpageshadow="2"
     inkscape:pageopacity="0.0"
     inkscape:pagecheckerboard="0"
     inkscape:deskcolor="#d1d1d1"
     inkscape:zoom="2.6656397"
     inkscape:cx="76.529472"
     inkscape:cy="-11.629479"
     inkscape:window-width="1920"
     inkscape:window-height="1008"
     inkscape:window-x="0"
     inkscape:window-y="0"
     inkscape:window-maximized="1"
     inkscape:current-layer="svg1" /><rect
     width="72"
     height="72"
     fill="none"
     id="rect1"
     x="0"
     y="0" /><path
     d="M 10.179687,6.683594 8.503906,8.359375 8.492186,5 Z m -1.6875,8.585937 1.683594,-1.683593 L 8.5,11.910156 Z M 15,10.132813 C 15,18.164063 12.191406,20 7.769531,20 3.347656,20 0,18.164063 0,10.132813 0,2.101563 3.257812,0 7.679687,0 12.101562,0 15,2.105469 15,10.132813 Z m -6.191406,0 L 11.910156,6.671875 7.023437,1.425781 V 8.335938 L 4.140625,5.453125 3.085937,6.503906 l 3.621094,3.632813 -3.621094,3.632812 1.050782,1.050782 2.882812,-2.882813 0.08984,6.640625 4.976562,-4.980469 z"
     id="path1-7"
     style="fill:#ffffff;stroke-width:0.0390625" /></svg>
