<?xml version="1.0" encoding="UTF-8" standalone="no"?>
<svg
   viewBox="0 0 20 21.333332"
   version="1.1"
   id="svg1"
   sodipodi:docname="l_mesh.svg"
   width="20"
   height="21.333332"
   inkscape:version="1.4.2 (ebf0e940d0, 2025-05-08)"
   xmlns:inkscape="http://www.inkscape.org/namespaces/inkscape"
   xmlns:sodipodi="http://sodipodi.sourceforge.net/DTD/sodipodi-0.dtd"
   xmlns="http://www.w3.org/2000/svg"
   xmlns:svg="http://www.w3.org/2000/svg">
  <defs
     id="defs1" />
  <sodipodi:namedview
     id="namedview1"
     pagecolor="#000000"
     bordercolor="#000000"
     borderopacity="0.25"
     inkscape:showpageshadow="2"
     inkscape:pageopacity="0.0"
     inkscape:pagecheckerboard="0"
     inkscape:deskcolor="#d1d1d1"
     showgrid="false"
     inkscape:zoom="1.5839844"
     inkscape:cx="93.435264"
     inkscape:cy="97.22318"
     inkscape:window-width="1920"
     inkscape:window-height="1008"
     inkscape:window-x="0"
     inkscape:window-y="0"
     inkscape:window-maximized="1"
     inkscape:current-layer="svg1" />
  <!--!Font Awesome Free 6.5.2 by @fontawesome - https://fontawesome.com License - https://fontawesome.com/license/free Copyright 2024 Fonticons, Inc.-->
  <path
     d="M 17.433333,6.579166 C 18.904167,6.233333 20,4.9125 20,3.333333 20,1.491667 18.508333,0 16.666667,0 14.858333,0 13.3875,1.4375 13.333333,3.229167 L 5.675,6.295833 C 5.070833,5.7 4.245833,5.333333 3.333333,5.333333 1.491667,5.333333 0,6.825 0,8.666667 0,10.508333 1.491667,12 3.333333,12 3.841667,12 4.325,11.8875 4.754167,11.683333 l 6.066666,5.308334 C 10.720833,17.308333 10.666667,17.65 10.666667,18 c 0,1.841667 1.491666,3.333333 3.333333,3.333333 1.841667,0 3.333333,-1.491666 3.333333,-3.333333 0,-1.154167 -0.583333,-2.170833 -1.475,-2.766667 z M 6.5125,9.675 C 6.60417,9.3875 6.658333,9.083333 6.666667,8.770833 L 14.325,5.708333 c 0.15,0.145833 0.308333,0.279167 0.483333,0.395833 l -1.575,8.650001 c -0.229166,0.05416 -0.45,0.12916 -0.658333,0.229166 z"
     id="path1"
     style="fill:#ffffff;stroke-width:0.0416667" />
</svg>
