<?xml version="1.0" encoding="UTF-8" standalone="no"?>
<svg
   width="20.000017"
   height="22"
   viewBox="0 0 20.000017 22"
   fill="none"
   version="1.1"
   id="svg1"
   sodipodi:docname="l_micropython_sensors.svg"
   inkscape:version="1.4.2 (ebf0e940d0, 2025-05-08)"
   xmlns:inkscape="http://www.inkscape.org/namespaces/inkscape"
   xmlns:sodipodi="http://sodipodi.sourceforge.net/DTD/sodipodi-0.dtd"
   xmlns="http://www.w3.org/2000/svg"
   xmlns:svg="http://www.w3.org/2000/svg">
  <defs
     id="defs1" />
  <sodipodi:namedview
     id="namedview1"
     pagecolor="#000000"
     bordercolor="#000000"
     borderopacity="0.25"
     inkscape:showpageshadow="2"
     inkscape:pageopacity="0.0"
     inkscape:pagecheckerboard="0"
     inkscape:deskcolor="#d1d1d1"
     inkscape:zoom="11.194444"
     inkscape:cx="10.004963"
     inkscape:cy="22.957816"
     inkscape:window-width="1920"
     inkscape:window-height="1008"
     inkscape:window-x="0"
     inkscape:window-y="0"
     inkscape:window-maximized="1"
     inkscape:current-layer="svg1" />
  <rect
     width="72"
     height="72"
     fill="none"
     id="rect1"
     x="-25.95225"
     y="-13" />
  <path
     d="m 9.0477495,0 -0.0013,3.0197 C 9.3703495,3.0067 9.7049495,3 10.05045,3 c 0.3434,0.0049 0.6759,0.0167 0.9977,0.0349 L 11.04775,0 h 4 l 3e-4,3.7319 c 6.7005,2.2085 5.2234,8.7886 3.4753,11.2681 -1.3597,1.9286 -4.4909,4.4515 -8.4729,7 C 5.8202495,19.3333 3.0127495,17 1.6026495,15 l -0.1268,-0.1871 c -1.73039997,-2.6532 -3.2702,-9.143 3.5709,-11.1863 L 5.0477495,0 Z M 10.38115,5.0076 10.02905,4.999 10.05045,5 C 5.2332495,5 2.9031495,6.294 2.2227495,8.3471 c -0.5048,1.5234 -0.0948,3.656 0.7749,5.1281 l 0.1338,0.2157 0.1058,0.1567 c 1.0582,1.5009 3.1592,3.33 6.2828,5.4235 l 0.5217005,0.3449 0.0716,-0.0462 c 3.2023,-2.1381 5.5741,-4.123 6.6563,-5.559 l 0.1191,-0.1632 c 0.9394,-1.3326 1.4203,-3.6223 0.883,-5.2777 -0.6758,-2.0823 -2.8973,-3.4314 -7.3906,-3.5623 z"
     fill="#ffffff"
     id="path1" />
</svg>
