<?xml version="1.0" encoding="UTF-8" standalone="no"?>
<svg
   width="25.5"
   height="21.857143"
   viewBox="0 0 21 18"
   version="1.1"
   id="svg1"
   sodipodi:docname="add-extension.svg"
   inkscape:version="1.4.2 (ebf0e940d0, 2025-05-08)"
   xmlns:inkscape="http://www.inkscape.org/namespaces/inkscape"
   xmlns:sodipodi="http://sodipodi.sourceforge.net/DTD/sodipodi-0.dtd"
   xmlns="http://www.w3.org/2000/svg"
   xmlns:svg="http://www.w3.org/2000/svg"
   xmlns:rdf="http://www.w3.org/1999/02/22-rdf-syntax-ns#"
   xmlns:cc="http://creativecommons.org/ns#"
   xmlns:dc="http://purl.org/dc/elements/1.1/">
  <sodipodi:namedview
     id="namedview1"
     pagecolor="#ffffff"
     bordercolor="#000000"
     borderopacity="0.25"
     inkscape:showpageshadow="2"
     inkscape:pageopacity="0.0"
     inkscape:pagecheckerboard="0"
     inkscape:deskcolor="#d1d1d1"
     inkscape:zoom="23.705882"
     inkscape:cx="12.148883"
     inkscape:cy="12.148883"
     inkscape:window-width="1920"
     inkscape:window-height="1008"
     inkscape:window-x="0"
     inkscape:window-y="0"
     inkscape:window-maximized="1"
     inkscape:current-layer="svg1" />
  <!-- Generator: Sketch 43.2 (39069) - http://www.bohemiancoding.com/sketch -->
  <title
     id="title1">add extension</title>
  <desc
     id="desc1">Created with Sketch.</desc>
  <defs
     id="defs1" />
  <g
     id="Page-1"
     stroke="none"
     stroke-width="1"
     fill="none"
     fill-rule="evenodd"
     transform="translate(-4,-4)">
    <g
       id="add-extension">
      <g
         transform="translate(4,5)"
         id="g1">
        <path
           d="m 18,15.51 c 0,0.276 -0.224,0.5 -0.5,0.5 H 7.197 c -0.133,0 -0.26,0.052 -0.353,0.146 L 6.146,16.854 C 6.053,16.947 5.926,17 5.793,17 H 3.207 C 3.074,17 2.947,16.947 2.854,16.854 L 2.156,16.156 C 2.062,16.062 1.936,16.01 1.803,16.01 H 0.5 C 0.224,16.01 0,15.786 0,15.51 V 11.5 C 0,11.224 0.224,11 0.5,11 h 1.293 c 0.133,0 0.26,0.053 0.353,0.146 l 0.708,0.708 C 2.947,11.947 3.074,12 3.207,12 h 2.586 c 0.133,0 0.26,-0.053 0.353,-0.146 L 6.854,11.146 C 6.947,11.053 7.074,11 7.207,11 H 17.5 c 0.276,0 0.5,0.224 0.5,0.5 z m -5.0039,-7 c 0,0.276 -0.224,0.5 -0.5,0.5 h -5.299 c -0.133,0 -0.26,0.052 -0.353,0.146 L 6.1461,9.854 C 6.0531,9.947 5.9261,10 5.7931,10 H 3.2071 C 3.0741,10 2.9471,9.947 2.8531,9.854 L 2.1561,9.156 C 2.0621,9.062 1.9351,9.01 1.8031,9.01 h -1.303 c -0.276,0 -0.5,-0.224 -0.5,-0.5 V 4.5 c 0,-0.276 0.224,-0.5 0.5,-0.5 h 1.293 c 0.133,0 0.26,0.053 0.353,0.146 l 0.707,0.708 C 2.9471,4.947 3.0741,5 3.2071,5 h 2.586 c 0.133,0 0.26,-0.053 0.353,-0.146 L 6.8531,4.146 C 6.9471,4.053 7.0741,4 7.2071,4 h 5.289 c 0.276,0 0.5,0.224 0.5,0.5 z"
           id="Combined-Shape"
           fill="#ffffff" />
        <g
           id="+"
           transform="translate(16)"
           stroke="#ffffff"
           stroke-width="2"
           stroke-linecap="round"
           stroke-linejoin="round">
          <path
             d="M 2,0 V 4"
             id="Shape" />
          <path
             d="M 4,2 H 0"
             id="path1" />
        </g>
      </g>
    </g>
  </g>
  <metadata
     id="metadata1">
    <rdf:RDF>
      <cc:Work
         rdf:about="">
        <dc:title>add extension</dc:title>
      </cc:Work>
    </rdf:RDF>
  </metadata>
</svg>
