<?xml version='1.0' encoding='utf-8'?>
<!-- Generator: Adobe Illustrator 28.2.0, SVG Export Plug-In . SVG Version: 6.00 Build 0)  -->
<svg xmlns="http://www.w3.org/2000/svg" baseProfile="basic" gorn="0" height="1in" id="Layer_1" version="1.1" viewBox="0 0 88.99 72" width="1.23597in" x="0px" xml:space="preserve"  xmlns:xml="http://www.w3.org/XML/1998/namespace" y="0px">
    <desc >
        <referenceFile >Light-sensor.svg</referenceFile>
    </desc>
    <style type="text/css" >
	.st0{fill:#008000;}
	.st1{fill:none;stroke:#FFFFFF;stroke-width:0.4252;stroke-linecap:round;stroke-linejoin:round;stroke-miterlimit:2.88;}
	.st2{fill:none;stroke:#FFCC00;stroke-width:0.5;stroke-miterlimit:2.88;}
	.st3{fill:none;stroke:#FFFFFF;stroke-width:0.5;stroke-miterlimit:2.88;}
	.st4{display:none;}
	
		.st5{display:inline;fill:none;stroke:#FFCC00;stroke-width:0.432;stroke-linecap:round;stroke-linejoin:round;stroke-miterlimit:2.88;}
	.st6{fill:none;stroke:#FFFFFF;stroke-width:0.2835;stroke-linecap:round;stroke-linejoin:round;stroke-miterlimit:2.88;}
	
		.st7{display:none;fill:#800080;stroke:#800080;stroke-width:0.288;stroke-linecap:round;stroke-linejoin:round;stroke-miterlimit:2.88;}
	.st8{display:none;fill:#808080;}
	.st9{display:none;fill:#FF0000;}
	.st10{fill:#444444;}
	.st11{fill:#B88A00;}
	.st12{fill:#B8AF82;}
	.st13{fill:#E2D6A1;}
	.st14{fill:#9A916C;}
	.st15{fill:none;stroke:#FFFFFF;stroke-width:0.432;}
	.st16{fill:none;stroke:#FFFFFF;stroke-width:0.432;stroke-linecap:round;}
	.st17{fill:#FFFFFF;}
	.st18{fill:none;stroke:#FFFFFF;stroke-width:0.72;stroke-linecap:round;}
	.st19{fill:#4D4D4D;}
	.st20{fill:#333333;}
	.st21{opacity:0.3;}
</style>
    <g gorn="0.2" id="Background" >
        <path class="st0" d="M79.7,31.85l-4.32-6.12l-5.4-5.4l-5.04-3.96l-4.68-2.88l-6.12-2.88l-6.48-2.16l-5.4-1.08L36.5,7.01l-5.4,0.72   l-2.88,1.08l-2.88,1.8l-2.52,2.16l-1.8,3.24l-0.72,3.96v31.68l1.08,3.6l2.16,3.24l2.88,2.88l2.88,1.08l2.88,0.72l6.12,0.36   l7.56-0.72l9-2.88l7.56-4.32l4.32-2.88l5.04-4.32l4.68-5.04l3.96-5.76l1.44-2.52L79.7,31.85z M43.99,18.41c4.51,0,4.5,7,0,7   C39.48,25.41,39.48,18.41,43.99,18.41z M44.19,53.93c-4.51,0-4.5-7,0-7C48.7,46.93,48.69,53.93,44.19,53.93z" />
    </g>
    <g gorn="0.3" id="Male_Pins_Name" >
        <g >
            <path class="st1" d="M33.22,41.79l-0.11-0.21l-0.2-0.21l-0.21-0.1H32.3l-0.21,0.1l-0.2,0.21l-0.11,0.21l-0.1,0.31v0.51l0.1,0.31    l0.11,0.21l0.2,0.21l0.21,0.1h0.41l0.21-0.1l0.2-0.21l0.11-0.21v-0.31 M32.71,42.61h0.52 M33.9,41.27v2.17 M33.9,41.27l1.45,2.17     M35.35,41.27v2.17 M36.03,41.27v2.17 M36.03,41.27h0.72l0.31,0.1l0.21,0.21l0.1,0.21l0.11,0.31v0.51l-0.11,0.31l-0.1,0.21    l-0.21,0.21l-0.31,0.1h-0.72" />
        </g>
        <g >
            <path class="st1" d="M31.68,34.07l0.83,2.17 M33.33,34.07l-0.82,2.17 M35.55,34.59l-0.1-0.21l-0.21-0.21l-0.2-0.1h-0.42l-0.2,0.1    l-0.21,0.21l-0.1,0.21l-0.1,0.31v0.51l0.1,0.31l0.1,0.21l0.21,0.21l0.2,0.1h0.42l0.2-0.1l0.21-0.21l0.1-0.21 M37.78,34.59    l-0.11-0.21l-0.2-0.21l-0.21-0.1h-0.41l-0.21,0.1l-0.21,0.21l-0.1,0.21l-0.1,0.31v0.51l0.1,0.31l0.1,0.21l0.21,0.21l0.21,0.1h0.41    l0.21-0.1l0.2-0.21l0.11-0.21" />
        </g>
        <g >
            <path class="st1" d="M32.66,26.87l-0.21,0.1l-0.2,0.21l-0.11,0.21l-0.1,0.31v0.51l0.1,0.31l0.11,0.21l0.2,0.21l0.21,0.1h0.41    l0.21-0.1l0.2-0.21l0.11-0.21l0.1-0.31V27.7l-0.1-0.31l-0.11-0.21l-0.2-0.21l-0.21-0.1H32.66 M34.37,26.87v1.55l0.1,0.31l0.2,0.21    l0.31,0.1h0.21l0.31-0.1l0.21-0.21l0.1-0.31v-1.55 M37.21,26.87v2.17 M36.49,26.87h1.45" />
        </g>
    </g>
    <g >
        <g >
            <g >
                <ellipse class="st2" cx="43.99" cy="21.96" rx="3.54" ry="3.54" />
            </g>
            <g >
                <ellipse class="st2" cx="44.17" cy="50.4" rx="3.54" ry="3.54" />
            </g>
        </g>
        <circle class="st3" cx="43.99" cy="21.96" r="7.09" />
        <circle class="st3" cx="44.17" cy="50.4" r="6.41" />
    </g>
    <g >
        <g >
            <g class="st4" >
                <path class="st5" d="M38.79,47.75l-0.3,0.15l-0.3,0.3l-0.14,0.29v0.59l0.14,0.3l0.3,0.3l0.3,0.15l0.45,0.14h0.73l0.44-0.14     l0.3-0.15l0.3-0.3l0.14-0.3v-0.59L41,48.2l-0.3-0.3l-0.3-0.15 M39.08,44.86l0.44,0.15l0.3,0.3l0.15,0.44v0.14l-0.15,0.45     l-0.3,0.3l-0.44,0.14h-0.14l-0.45-0.14l-0.3-0.3l-0.14-0.45v-0.14l0.14-0.44l0.3-0.3L39.08,44.86h0.73l0.74,0.15l0.44,0.3     l0.14,0.44v0.3L41,46.48l-0.3,0.15 M38.79,43.75h-0.14l-0.3-0.15l-0.15-0.14l-0.14-0.3v-0.59l0.14-0.3l0.15-0.14l0.3-0.15h0.3     l0.3,0.15l0.44,0.3l1.47,1.47v-2.06 M38.64,40.86l-0.15-0.3l-0.44-0.44h3.09 M38.05,37.38v1.48L39.38,39l-0.14-0.14l-0.15-0.45     v-0.44l0.15-0.44l0.29-0.3l0.45-0.15h0.3l0.44,0.15l0.3,0.3l0.14,0.44v0.44L41,38.86L40.85,39l-0.3,0.15 M39.08,34.2l0.44,0.15     l0.3,0.3l0.15,0.44v0.15l-0.15,0.44l-0.3,0.3l-0.44,0.14h-0.14l-0.45-0.14l-0.3-0.3l-0.14-0.44v-0.15l0.14-0.44l0.3-0.3     L39.08,34.2h0.73l0.74,0.15l0.44,0.3l0.14,0.44v0.3L41,35.82l-0.3,0.15" />
            </g>
            <g >
                <path class="st6" d="M26.35,46.81v1.35 M27.25,46.81v1.35 M26.35,47.46h0.9 M27.68,47.07L27.81,47L28,46.81v1.35" />
            </g>
        </g>
        <g >
            <g class="st4" >
                <path class="st5" d="M33.39,45.54v3.09 M32.36,45.54h2.06 M35.39,45.54v3.09 M35.39,45.54h1.92 M35.39,47.01h1.18 M35.39,48.63     h1.92 M38.28,45.54v3.09 M38.28,45.54l1.18,3.09 M40.64,45.54l-1.18,3.09 M40.64,45.54v3.09 M42.64,45.54v3.09 M41.61,45.54h2.06      M46.4,45.98l-0.14-0.3l-0.44-0.14h-0.3l-0.45,0.14l-0.3,0.45l-0.14,0.73v0.73l0.14,0.59l0.3,0.3l0.45,0.14h0.14l0.44-0.14     l0.3-0.3l0.15-0.44V47.6l-0.15-0.44l-0.3-0.3l-0.44-0.14h-0.14l-0.45,0.14l-0.3,0.3l-0.14,0.44 M48.41,45.54l-0.45,0.14     l-0.3,0.45l-0.14,0.73v0.44l0.14,0.74l0.3,0.44l0.45,0.14h0.29l0.45-0.14l0.3-0.44l0.14-0.74v-0.44l-0.14-0.73l-0.3-0.45     l-0.45-0.14H48.41 M51.44,45.54L51,45.68l-0.3,0.45l-0.15,0.73v0.44l0.15,0.74l0.3,0.44l0.44,0.14h0.3l0.44-0.14l0.3-0.44     l0.15-0.74v-0.44l-0.15-0.73l-0.3-0.45l-0.44-0.14H51.44 M54.48,45.54l-0.44,0.14l-0.3,0.45l-0.14,0.73v0.44l0.14,0.74l0.3,0.44     l0.44,0.14h0.3l0.45-0.14l0.29-0.44l0.15-0.74v-0.44l-0.15-0.73l-0.29-0.45l-0.45-0.14H54.48 M56.63,45.54l2.06,3.09      M58.69,45.54l-2.06,3.09 M60.54,45.54l-0.44,0.14l-0.3,0.45l-0.15,0.73v0.44l0.15,0.74l0.3,0.44l0.44,0.14h0.3l0.44-0.14     l0.3-0.44l0.15-0.74v-0.44l-0.15-0.73l-0.3-0.45l-0.44-0.14H60.54 M62.7,46.13l0.3-0.15l0.44-0.44v3.09" />
            </g>
            <g >
                <path class="st6" d="M68.77,36.37v0.97l0.06,0.19l0.13,0.13l0.19,0.06h0.13l0.19-0.06l0.13-0.13l0.06-0.19v-0.97 M70.1,36.63     l0.13-0.06l0.19-0.19v1.35" />
            </g>
            <g >
                <polygon class="st7" points="59.23,37.42 56.11,37.42 56.11,34.58 59.23,34.58    " />
                <polygon class="st8" points="59.23,37.42 56.11,37.42 56.11,34.58 59.23,34.58    " />
                <polygon class="st9" points="59.23,37.42 56.11,37.42 56.11,34.58 59.23,34.58    " />
                <rect class="st9" height="0" width="0" x="57.67"  y="36"/>
            </g>
            <g >
                <polygon class="st7" points="69.31,38.72 66.19,38.72 66.19,36.45 69.31,36.45    " />
                <polygon class="st8" points="69.31,38.72 66.19,38.72 66.19,36.45 69.31,36.45    " />
                <polygon class="st9" points="69.31,38.72 66.19,38.72 66.19,36.45 69.31,36.45    " />
                <rect class="st9" height="0" width="0" x="67.75"  y="37.58"/>
            </g>
            <g >
                <polygon class="st7" points="69.31,35.55 66.19,35.55 66.19,33.28 69.31,33.28    " />
                <polygon class="st8" points="69.31,35.55 66.19,35.55 66.19,33.28 69.31,33.28    " />
                <polygon class="st9" points="69.31,35.55 66.19,35.55 66.19,33.28 69.31,33.28    " />
                <rect class="st9" height="0" width="0" x="67.75"  y="34.42"/>
            </g>
        </g>
    </g>
    <g gorn="0.6" id="Male_90_degree" >
        <g >
            <rect class="st10" height="3.71" width="7.43" x="23.47"  y="25.58"/>
            <polygon class="st10" points="29.04,23.73 30.9,25.58 23.47,25.58 25.33,23.73   " />
            <polygon class="st10" points="30.9,29.3 29.04,31.15 25.33,31.15 23.47,29.3   " />
            <rect class="st11" height="1.31" width="1.67" x="26.35"  y="26.78"/>
        </g>
        <g >
            <rect class="st10" height="3.71" width="7.43" x="23.47"  y="40.43"/>
            <polygon class="st10" points="29.04,38.58 30.9,40.43 23.47,40.43 25.33,38.58   " />
            <polygon class="st10" points="30.9,44.15 29.04,46 25.33,46 23.47,44.15   " />
            <rect class="st11" height="1.31" width="1.67" x="26.35"  y="41.63"/>
        </g>
        <g >
            <rect class="st10" height="3.71" width="7.43" x="23.47"  y="33.01"/>
            <polygon class="st10" points="29.04,31.15 30.9,33.01 23.47,33.01 25.33,31.15   " />
            <polygon class="st10" points="30.9,36.72 29.04,38.58 25.33,38.58 23.47,36.72   " />
            <rect class="st11" height="1.31" width="1.67" x="26.35"  y="34.21"/>
        </g>
        <g gorn="0.6.3" id="Male_Pin" >
            <g >
                <g >
                    <g >
                        <polygon class="st12" points="9.63,36.01 7.68,35.45 7.68,34.27 9.63,33.72 26.97,33.72 26.97,36.01      " />
                        <polygon class="st13" gorn="0.6.3.0.0.0.1" id="connector1pin" points="7.68,35.45 8.22,35.61 8.22,34.12 7.68,34.27      " />
                        <rect fill="none" gorn="0.6.3.0.0.0.2" height="0.00298" id="connector1terminal" stroke="none" stroke-width="0" width="0.00108" x="7.67946"  y="34.8635"/>
                    </g>
                    <polygon class="st14" points="28.08,36.01 28.08,33.72 27.64,33.72 27.64,36.01     " />
                    <polygon class="st13" points="27.62,36.01 27.62,33.72 26.97,33.72 26.97,36.01     " />
                </g>
            </g>
        </g>
        <g gorn="0.6.4" id="Male_Pin_00000180329091057861314510000004885787001873050554_" >
            <g >
                <g >
                    <g >
                        <polygon class="st12" points="9.63,43.44 7.68,42.88 7.68,41.7 9.63,41.14 26.97,41.14 26.97,43.44      " />
                        <polygon class="st13" gorn="0.6.4.0.0.0.1" id="connector2pin" points="7.68,42.88 8.22,43.04 8.22,41.54 7.68,41.7      " />
                        <rect fill="none" gorn="0.6.4.0.0.0.2" height="0.003" id="connector2terminal" stroke="none" stroke-width="0" width="0.00108" x="7.67946"  y="42.2885"/>
                    </g>
                    <polygon class="st14" points="28.08,43.44 28.08,41.14 27.64,41.14 27.64,43.44     " />
                    <polygon class="st13" points="27.62,43.44 27.62,41.14 26.97,41.14 26.97,43.44     " />
                </g>
            </g>
        </g>
        <g gorn="0.6.5" id="Male_Pin_00000000902931182367002570000006593565775405901499_" >
            <g >
                <g >
                    <g >
                        <polygon class="st12" points="9.63,28.59 7.68,28.03 7.68,26.85 9.63,26.29 26.97,26.29 26.97,28.59      " />
                        <polygon class="st13" gorn="0.6.5.0.0.0.1" id="connector0pin" points="7.68,28.03 8.22,28.19 8.22,26.69 7.68,26.85      " />
                        <rect fill="none" gorn="0.6.5.0.0.0.2" height="0.003" id="connector0terminal" stroke="none" stroke-width="0" width="0.00108" x="7.67946"  y="27.4385"/>
                    </g>
                    <polygon class="st14" points="28.08,28.59 28.08,26.29 27.64,26.29 27.64,28.59     " />
                    <polygon class="st13" points="27.62,28.59 27.62,26.29 26.97,26.29 26.97,28.59     " />
                </g>
            </g>
        </g>
    </g>
    <g gorn="0.7" id="R1_00000069397351283151082560000006546072173336805774_" >
        <g >
            <path class="st6" d="M65.37,41.75v1.35 M65.37,41.75h0.58l0.19,0.06l0.06,0.06l0.06,0.13v0.13l-0.06,0.13l-0.06,0.06l-0.19,0.06    h-0.58 M65.82,42.4l0.45,0.71 M66.7,42.01l0.13-0.06l0.19-0.19v1.35" />
        </g>
        <g gorn="0.7.1" id="R1_00000168081544639086710210000010737679834615417504_" >
            <g >
                <g >
                    <path class="st15" d="M67.89,44.33c0.2,0,0.36-0.19,0.36-0.42" />
                    <path class="st15" d="M68.25,40.95c0-0.23-0.16-0.42-0.36-0.42l0,0" />
                    <path class="st15" d="M59.69,40.53c-0.2,0-0.36,0.19-0.36,0.42v0" />
                    <path class="st15" d="M59.33,43.91c0,0.23,0.16,0.42,0.36,0.42" />
                    <line class="st16" x1="68.25" x2="68.25"  y1="40.95" y2="43.91"/>
                    <line class="st16" x1="67.89" x2="67.36"  y1="44.33" y2="44.33"/>
                    <line class="st16" x1="67.18" x2="67.36"  y1="44.12" y2="44.33"/>
                    <line class="st16" x1="67.89" x2="67.36"  y1="40.53" y2="40.53"/>
                    <line class="st16" x1="67.18" x2="67.36"  y1="40.74" y2="40.53"/>
                    <line class="st16" x1="60.4" x2="60.22"  y1="44.12" y2="44.33"/>
                    <line class="st16" x1="60.4" x2="67.18"  y1="44.12" y2="44.12"/>
                    <line class="st16" x1="60.4" x2="60.22"  y1="40.74" y2="40.53"/>
                    <line class="st16" x1="60.4" x2="67.18"  y1="40.74" y2="40.74"/>
                    <line class="st16" x1="59.69" x2="60.22"  y1="44.33" y2="44.33"/>
                    <line class="st16" x1="59.69" x2="60.22"  y1="40.53" y2="40.53"/>
                    <line class="st16" x1="59.33" x2="59.33"  y1="40.95" y2="43.91"/>
                    <rect class="st17" height="1.02" width="1.21" x="58.12"  y="42.94"/>
                    <rect class="st17" height="1.02" width="1.21" x="68.25"  y="42.94"/>
                </g>
            </g>
            <g >
                <g >
                    <g />
                </g>
            </g>
        </g>
    </g>
    <g gorn="0.8" id="R2_00000036953799888241485270000008677912717407114893_" >
        <g >
            <path class="st6" d="M65.47,28.84v1.35 M65.47,28.84h0.58l0.19,0.06l0.07,0.06l0.06,0.13v0.13l-0.06,0.13l-0.07,0.06l-0.19,0.06    h-0.58 M65.92,29.49l0.45,0.71 M66.86,29.17V29.1l0.06-0.13l0.06-0.06l0.13-0.06h0.26l0.13,0.06l0.06,0.06l0.06,0.13v0.13    l-0.06,0.13l-0.13,0.19l-0.65,0.64h0.91" />
        </g>
        <g >
            <g >
                <g >
                    <path class="st15" d="M68.03,31.42c0.2,0,0.36-0.19,0.36-0.42" />
                    <path class="st15" d="M68.38,28.04c0-0.23-0.16-0.42-0.36-0.42l0,0" />
                    <path class="st15" d="M59.82,27.62c-0.2,0-0.36,0.19-0.36,0.42v0" />
                    <path class="st15" d="M59.47,31c0,0.23,0.16,0.42,0.36,0.42" />
                    <line class="st16" x1="68.38" x2="68.38"  y1="28.04" y2="31"/>
                    <line class="st16" x1="68.03" x2="67.49"  y1="31.42" y2="31.42"/>
                    <line class="st16" x1="67.31" x2="67.49"  y1="31.21" y2="31.42"/>
                    <line class="st16" x1="68.03" x2="67.49"  y1="27.62" y2="27.62"/>
                    <line class="st16" x1="67.31" x2="67.49"  y1="27.83" y2="27.62"/>
                    <line class="st16" x1="60.54" x2="60.36"  y1="31.21" y2="31.42"/>
                    <line class="st16" x1="60.54" x2="67.31"  y1="31.21" y2="31.21"/>
                    <line class="st16" x1="60.54" x2="60.36"  y1="27.83" y2="27.62"/>
                    <line class="st16" x1="60.54" x2="67.31"  y1="27.83" y2="27.83"/>
                    <line class="st16" x1="59.82" x2="60.36"  y1="31.42" y2="31.42"/>
                    <line class="st16" x1="59.82" x2="60.36"  y1="27.62" y2="27.62"/>
                    <line class="st16" x1="59.47" x2="59.47"  y1="28.04" y2="31"/>
                    <rect class="st17" height="1.02" width="1.21" x="58.25"  y="30.03"/>
                    <rect class="st17" height="1.02" width="1.21" x="68.38"  y="30.03"/>
                </g>
            </g>
            <g >
                <g >
                    <g />
                </g>
            </g>
        </g>
    </g>
    <g gorn="0.9" id="C3" >
        <g >
            <path class="st6" d="M41.29,40.06l-0.06-0.13l-0.13-0.13l-0.13-0.06h-0.25l-0.13,0.06l-0.13,0.13l-0.07,0.13l-0.06,0.19v0.32    l0.06,0.19l0.07,0.12l0.13,0.13l0.13,0.06h0.25l0.13-0.06l0.13-0.13l0.06-0.12 M41.84,39.73h0.71l-0.39,0.52h0.19l0.13,0.06    l0.07,0.06l0.06,0.19v0.13l-0.06,0.19l-0.13,0.13l-0.19,0.06h-0.19l-0.19-0.06l-0.06-0.06l-0.06-0.13" />
        </g>
        <g >
            <g >
                <g >
                    <line class="st16" x1="43.72" x2="43.72"  y1="32.56" y2="41.57"/>
                    <line class="st16" x1="39.23" x2="39.23"  y1="41.57" y2="32.56"/>
                    <line class="st16" x1="43.27" x2="39.68"  y1="42.1" y2="42.1"/>
                    <line class="st16" x1="43.27" x2="39.68"  y1="32.02" y2="32.02"/>
                    <path class="st15" d="M43.27,42.1c0.25,0,0.45-0.24,0.45-0.53l0,0" />
                    <path class="st15" d="M43.72,32.56c0-0.29-0.2-0.53-0.45-0.53l0,0" />
                    <path class="st15" d="M39.23,41.57c0,0.29,0.2,0.53,0.45,0.53l0,0" />
                    <path class="st15" d="M39.68,32.02c-0.25,0-0.45,0.24-0.45,0.53l0,0" />
                    <line class="st16" x1="41.47" x2="41.47"  y1="37.86" y2="37.59"/>
                    <line class="st18" x1="41.47" x2="42.82"  y1="37.59" y2="37.59"/>
                    <line class="st18" x1="41.47" x2="40.12"  y1="37.59" y2="37.59"/>
                    <line class="st18" x1="42.82" x2="41.47"  y1="36.53" y2="36.53"/>
                    <line class="st18" x1="41.47" x2="40.12"  y1="36.53" y2="36.53"/>
                    <line class="st16" x1="41.47" x2="41.47"  y1="36.53" y2="36.27"/>
                </g>
            </g>
        </g>
    </g>
    <g gorn="0.10" id="C2" >
        <g >
            <path class="st6" d="M47.41,40.13L47.34,40l-0.13-0.13l-0.13-0.06h-0.25l-0.13,0.06L46.57,40l-0.07,0.13l-0.06,0.19v0.32    l0.06,0.19l0.07,0.12l0.13,0.13l0.13,0.06h0.25l0.13-0.06l0.13-0.13l0.06-0.12 M47.9,40.13v-0.06l0.06-0.13l0.07-0.06l0.13-0.06    h0.26l0.13,0.06l0.06,0.06l0.07,0.13v0.13l-0.07,0.13l-0.13,0.19l-0.65,0.64h0.91" />
        </g>
        <g >
            <g >
                <g >
                    <line class="st16" x1="49.84" x2="49.84"  y1="32.57" y2="41.59"/>
                    <line class="st16" x1="45.35" x2="45.35"  y1="41.59" y2="32.57"/>
                    <line class="st16" x1="49.39" x2="45.8"  y1="42.12" y2="42.12"/>
                    <line class="st16" x1="49.39" x2="45.8"  y1="32.04" y2="32.04"/>
                    <path class="st15" d="M49.39,42.12c0.25,0,0.45-0.24,0.45-0.53l0,0" />
                    <path class="st15" d="M49.84,32.57c0-0.29-0.2-0.53-0.45-0.53l0,0" />
                    <path class="st15" d="M45.35,41.59c0,0.29,0.2,0.53,0.45,0.53l0,0" />
                    <path class="st15" d="M45.8,32.04c-0.25,0-0.45,0.24-0.45,0.53l0,0" />
                    <line class="st16" x1="47.59" x2="47.59"  y1="37.88" y2="37.61"/>
                    <line class="st18" x1="47.59" x2="48.94"  y1="37.61" y2="37.61"/>
                    <line class="st18" x1="47.59" x2="46.24"  y1="37.61" y2="37.61"/>
                    <line class="st18" x1="48.94" x2="47.59"  y1="36.55" y2="36.55"/>
                    <line class="st18" x1="47.59" x2="46.24"  y1="36.55" y2="36.55"/>
                    <line class="st16" x1="47.59" x2="47.59"  y1="36.55" y2="36.28"/>
                </g>
            </g>
        </g>
    </g>
    <g gorn="0.11" id="C1" >
        <g >
            <path class="st6" d="M55.32,29.51l-0.06-0.13l-0.13-0.13l-0.13-0.06h-0.25l-0.13,0.06l-0.13,0.13l-0.07,0.13l-0.06,0.19v0.32    l0.06,0.19l0.07,0.12l0.13,0.13l0.13,0.06h0.25l0.13-0.06l0.13-0.13l0.06-0.12 M55.74,29.45l0.13-0.06l0.19-0.19v1.35" />
        </g>
        <g >
            <g >
                <g >
                    <line class="st16" x1="57.45" x2="57.45"  y1="22.13" y2="31.15"/>
                    <line class="st16" x1="52.96" x2="52.96"  y1="31.15" y2="22.13"/>
                    <line class="st16" x1="57.01" x2="53.41"  y1="31.68" y2="31.68"/>
                    <line class="st16" x1="57.01" x2="53.41"  y1="21.6" y2="21.6"/>
                    <path class="st15" d="M57.01,31.68c0.25,0,0.45-0.24,0.45-0.53l0,0" />
                    <path class="st15" d="M57.45,22.13c0-0.29-0.2-0.53-0.45-0.53l0,0" />
                    <path class="st15" d="M52.96,31.15c0,0.29,0.2,0.53,0.45,0.53l0,0" />
                    <path class="st15" d="M53.41,21.6c-0.25,0-0.45,0.24-0.45,0.53l0,0" />
                    <line class="st16" x1="55.21" x2="55.21"  y1="27.44" y2="27.17"/>
                    <line class="st18" x1="55.21" x2="56.56"  y1="27.17" y2="27.17"/>
                    <line class="st18" x1="55.21" x2="53.86"  y1="27.17" y2="27.17"/>
                    <line class="st18" x1="56.56" x2="55.21"  y1="26.11" y2="26.11"/>
                    <line class="st18" x1="55.21" x2="53.86"  y1="26.11" y2="26.11"/>
                    <line class="st16" x1="55.21" x2="55.21"  y1="26.11" y2="25.84"/>
                </g>
            </g>
        </g>
    </g>
    <g transform="matrix(1, 0, 0, 1, 7.2, 9.59501)" >
        <g >
            <g >
                <g >
                    <g gorn="0.12.0.0.0.0" id="Diode_00000099662713838592085580000006700860115267670965_" >
                        <g >
                            <g >
                                <path class="st19" d="M60.05,23.95h-6.92c-0.11,0-0.2,0.09-0.2,0.2v4.6h7.33v-4.6C60.25,24.04,60.16,23.95,60.05,23.95z" />
                                <path class="st20" d="M60.05,28.57h-6.92c-0.11,0-0.2,0.09-0.2,0.2v0.36h0.89v0.22h5.55l0-0.22h0.89v-0.36     C60.25,28.66,60.16,28.57,60.05,28.57z" />
                                <path class="st21" d="M52.93,28.71c0-0.11,0.09-0.2,0.2-0.2h6.92c0.11,0,0.2,0.09,0.2,0.2v0.06c0-0.11-0.09-0.2-0.2-0.2l-6.92,0     c-0.11,0-0.2,0.09-0.2,0.2V28.71z" />
                            </g>
                        </g>
                    </g>
                </g>
            </g>
        </g>
    </g>
</svg>
