<?xml version="1.0" encoding="UTF-8" standalone="no"?>
<svg
   width="105.51003"
   height="66.477036"
   viewBox="0 0 105.51003 66.477036"
   fill="none"
   version="1.1"
   id="svg29"
   sodipodi:docname="orig_uno.svg"
   inkscape:export-filename="orig_uno.svg"
   inkscape:export-xdpi="96"
   inkscape:export-ydpi="96"
   inkscape:version="1.4.2 (ebf0e940d0, 2025-05-08)"
   xmlns:inkscape="http://www.inkscape.org/namespaces/inkscape"
   xmlns:sodipodi="http://sodipodi.sourceforge.net/DTD/sodipodi-0.dtd"
   xmlns="http://www.w3.org/2000/svg"
   xmlns:svg="http://www.w3.org/2000/svg">
  <defs
     id="defs29">
    <rect
       x="84.616135"
       y="15.370143"
       width="32.168762"
       height="16.836027"
       id="rect66" />
  </defs>
  <sodipodi:namedview
     id="namedview29"
     pagecolor="#ffffff"
     bordercolor="#000000"
     borderopacity="0.25"
     inkscape:showpageshadow="2"
     inkscape:pageopacity="0.0"
     inkscape:pagecheckerboard="0"
     inkscape:deskcolor="#d1d1d1"
     inkscape:pageshadow="2"
     showgrid="false"
     inkscape:zoom="7.0969373"
     inkscape:cx="63.971257"
     inkscape:cy="43.539908"
     inkscape:window-width="1920"
     inkscape:window-height="1008"
     inkscape:window-x="0"
     inkscape:window-y="0"
     inkscape:window-maximized="1"
     inkscape:current-layer="g29"
     showguides="true" />
  <g
     id="g29"
     transform="matrix(0.81790719,0,0,0.81790719,0,-0.12808494)"
     style="opacity:0.35">
    <path
       d="M 80.417774,16.316601 C 80.417774,6.2513008 69.0188,2.34848 57.7211,5.22427 46.4233,8.10006 41.9042,17.753812 41.9042,32.132812"
       stroke="#444458"
       stroke-width="1.5"
       id="path1"
       style="stroke:#000000;stroke-opacity:0.2"
       sodipodi:nodetypes="ccc" />
    <path
       d="M 81.138512,16.316601 C 81.138512,6.2512808 68.403,-1.96519 55.2564,2.55389 42.1099,7.07297 39.404859,17.753812 39.404859,32.132812"
       stroke="#E0E0E0"
       stroke-width="1.5"
       id="path2"
       style="stroke:#000000;stroke-opacity:0.2"
       sodipodi:nodetypes="ccc" />
    <rect
       x="79.495201"
       y="16.316601"
       width="3.2866199"
       height="9.8598804"
       fill="#B9B9B9"
       id="rect2"
       style="fill:#000000;fill-opacity:0.2" />
    <path
       d="M 77.030312,16.3165 C 77.030312,6.2511697 62.2405,-3.1978 49.9156,2.75926 37.5908,8.71631 37.5908,17.753812 37.5908,32.132812"
       stroke="#178ACE"
       stroke-width="1.5"
       id="path3"
       style="stroke:#000000;stroke-opacity:0.2"
       sodipodi:nodetypes="ccc" />
    <rect
       x="75.387001"
       y="16.3165"
       width="3.2866199"
       height="9.8598804"
       fill="#B9B9B9"
       id="rect4"
       style="fill:#000000;fill-opacity:0.2" />
    <path
       id="rect6"
       style="fill:#000000;fill-opacity:0.1"
       d="m 34.304688,32.132812 v 14.791016 l 10.886413,-5.26e-4 v -14.79049 z m 5.544921,2.464844 c 1.134898,-3.03e-4 2.054991,0.91979 2.054688,2.054688 3.02e-4,1.134898 -0.91979,2.05499 -2.054688,2.054687 -1.134135,-7.76e-4 -2.053036,-0.920552 -2.052734,-2.054687 -3.03e-4,-1.134135 0.918599,-2.053912 2.052734,-2.054688 z"
       sodipodi:nodetypes="cccccccccc" />
    <path
       id="rect7"
       style="fill:#000000;fill-opacity:0.3"
       d="M 45.191406,26.175781 V 46.923828 H 88.328125 V 26.175781 Z m 10.578125,2.054688 a 8.3192701,8.3192701 0 0 1 8.320313,8.320312 8.3192701,8.3192701 0 0 1 -8.320313,8.31836 8.3192701,8.3192701 0 0 1 -8.318359,-8.31836 8.3192701,8.3192701 0 0 1 8.318359,-8.320312 z m 22.390625,0 a 8.3192701,8.3192701 0 0 1 8.31836,8.320312 8.3192701,8.3192701 0 0 1 -8.31836,8.31836 8.3192701,8.3192701 0 0 1 -8.320312,-8.31836 8.3192701,8.3192701 0 0 1 8.320312,-8.320312 z" />
    <circle
       cx="55.769798"
       cy="36.5499"
       r="6.26513"
       fill="#444458"
       id="circle9"
       style="fill:none;stroke:#000000;stroke-opacity:0.2" />
    <circle
       cx="78.159798"
       cy="36.5499"
       r="6.26513"
       fill="#444458"
       id="circle13"
       style="fill:none;stroke:#000000;stroke-opacity:0.2" />
    <path
       id="rect15"
       d="m 31.222656,46.923828 v 8.216797 H 73.126953 83.398438 V 46.923828 H 73.126953 Z"
       style="fill:#000000;fill-opacity:0.2" />
    <path
       id="rect17"
       style="fill:#000000;fill-opacity:0.2"
       d="m 8.2167969,46.923828 v 8.216797 H 0 v 3.285156 H 8.2167969 V 69.929688 H 0 v 3.287109 h 8.2167969 v 8.216797 H 19.720703 V 73.216797 H 109.2793 v 8.216797 h 11.5039 V 73.216797 H 129 v -3.287109 h -8.2168 V 58.425781 H 129 v -3.285156 h -8.2168 v -8.216797 h -11.5039 v 8.216797 H 19.720703 V 46.923828 Z M 19.720703,58.425781 H 109.2793 V 69.929688 H 19.720703 Z" />
    <rect
       x="63.043098"
       y="73.216797"
       width="2.96176"
       height="5.6351466"
       fill="#5d5d5d"
       id="rect18"
       style="fill:#000000;fill-opacity:0.2;stroke-width:0.885121" />
    <rect
       x="27.730801"
       y="58.426498"
       width="73.5382"
       height="11.5032"
       fill="#444458"
       id="rect25"
       style="fill:#000000;fill-opacity:0.2" />
  </g>
</svg>
