<?xml version='1.0' encoding='utf-8'?>
<!-- Generator: Adobe Illustrator 28.2.0, SVG Export Plug-In . SVG Version: 6.00 Build 0)  -->
<svg xmlns="http://www.w3.org/2000/svg" baseProfile="basic" gorn="0" height="1in" id="Layer_1" version="1.1" viewBox="0 0 132.98 72" width="1.84694in" x="0px" xml:space="preserve"  xmlns:xml="http://www.w3.org/XML/1998/namespace" y="0px">
    <desc >
        <referenceFile >Line-sensor-DY-ITR9909-3V3 2.svg</referenceFile>
    </desc>
    <style type="text/css" >
	.st0{fill:#008000;}
	.st1{fill:none;stroke:#FFFFFF;stroke-width:0.72;stroke-miterlimit:2.88;}
	.st2{fill:none;stroke:#FFE300;stroke-width:0.5;stroke-miterlimit:2.88;}
	.st3{fill:none;stroke:#FFFFFF;stroke-width:0.2835;stroke-linecap:round;stroke-linejoin:round;stroke-miterlimit:2.88;}
	.st4{fill:none;stroke:#FFFFFF;stroke-width:0.432;}
	.st5{fill:none;stroke:#FFFFFF;stroke-width:0.432;stroke-linecap:round;}
	.st6{fill:#FFFFFF;}
	.st7{fill:none;}
	.st8{fill:#F0F0F0;}
	.st9{opacity:0.7;fill:#22B373;}
	.st10{fill:#B1B1B1;}
	.st11{fill:#CFC48E;}
	.st12{fill:#9B936C;}
	.st13{opacity:0.5;fill:#FFFFFF;}
	.st14{opacity:0.5;fill:#F0F0F0;}
	.st15{opacity:0.55;fill:#FFFFFF;}
	.st16{opacity:0.03;}
	.st17{fill:none;stroke:#FFFFFF;stroke-width:0.72;stroke-linecap:round;}
	.st18{fill:#303030;}
	.st19{fill:#3D3D3D;}
	.st20{fill:#141414;}
	.st21{fill:#1F1F1F;}
	.st22{fill:#1C1C1C;}
	.st23{fill:#383838;}
	.st24{fill:#262626;}
	.st25{fill:#212121;}
	.st26{fill:#E4E4E4;}
	.st27{fill:#8A8A8A;}
	.st28{display:none;}
	.st29{display:inline;}
	.st30{fill:#FFE300;}
	.st31{fill:#B68800;}
	.st32{fill:none;stroke:#FFFFFF;stroke-width:0.5669;stroke-linecap:round;stroke-linejoin:round;stroke-miterlimit:2.88;}
	.st33{fill:#444444;}
	.st34{fill:#B6AD80;}
	.st35{fill:#E0D49F;}
	.st36{fill:#988F6C;}
	.st37{fill:none;stroke:#FFFFFF;stroke-width:0.25;stroke-miterlimit:10;}
	.st38{fill:#1A1A1A;}
</style>
    <g >
        <g >
            <line class="st0" x1="24.62" x2="28.94"  y1="22.92" y2="22.92"/>
            <line class="st0" x1="28.94" x2="24.62"  y1="51.36" y2="51.36"/>
            <polyline class="st0" points="116.94,22.92 28.94,22.92 24.62,23.1 24.62,51.36 24.62,23.1 121.46,22.92 121.82,22.92     126.91,28.76   " />
            <line class="st0" x1="28.94" x2="116.84"  y1="51.36" y2="51.36"/>
            <line class="st0" x1="116.72" x2="121.52"  y1="51.36" y2="51.36"/>
            <line class="st0" x1="116.94" x2="121.82"  y1="22.92" y2="22.92"/>
            <path class="st0" d="M121.46,22.92L24.62,23.1v28.26l96.9,0.02l5.39-5.43V28.76L121.46,22.92z M75.83,40.92    c-0.74,0-1.35-0.2-1.84-0.52c-2.81-1.44-2.28-6.61,1.6-6.61c0.03,0,0.05,0.01,0.07,0.01c0.03,0,0.06-0.01,0.1-0.01    c1.13,0,1.98,0.44,2.54,1.1c0.16,0.18,0.29,0.38,0.4,0.59c0.03,0.05,0.05,0.09,0.08,0.14c0.03,0.06,0.06,0.12,0.08,0.19    C79.8,37.9,78.79,40.92,75.83,40.92z" />
            <polyline class="st0" points="121.52,51.38 126.91,45.95 126.91,28.76 126.91,45.95   " />
            <path class="st0" d="M121.52,51.38l5.39-5.43L121.52,51.38z" />
        </g>
    </g>
    <g gorn="0.3" id="Holes" >
        <circle class="st1" cx="75.74" cy="37.32" r="5.67" />
        <g >
            <ellipse class="st2" cx="75.74" cy="37.32" rx="3.69" ry="3.69" />
        </g>
    </g>
    <g gorn="0.4" id="R2" >
        <g >
            <path class="st3" d="M93.49,26.5v1.35 M93.49,26.5h0.58l0.19,0.06l0.07,0.06l0.06,0.13v0.13l-0.06,0.13l-0.07,0.06l-0.19,0.06    h-0.58 M93.94,27.14l0.45,0.71 M94.88,26.82v-0.06l0.06-0.13l0.06-0.06l0.13-0.06h0.26l0.13,0.06l0.06,0.06l0.06,0.13v0.13    l-0.06,0.13l-0.13,0.19l-0.65,0.64h0.91" />
        </g>
        <g >
            <g >
                <g >
                    <path class="st4" d="M96.05,29.08c0.2,0,0.36-0.19,0.36-0.42" />
                    <path class="st4" d="M96.4,25.69c0-0.23-0.16-0.42-0.36-0.42l0,0" />
                    <path class="st4" d="M87.84,25.27c-0.2,0-0.36,0.19-0.36,0.42v0" />
                    <path class="st4" d="M87.48,28.65c0,0.23,0.16,0.42,0.36,0.42" />
                    <line class="st5" x1="96.4" x2="96.4"  y1="25.69" y2="28.65"/>
                    <line class="st5" x1="96.05" x2="95.51"  y1="29.08" y2="29.08"/>
                    <line class="st5" x1="95.33" x2="95.51"  y1="28.86" y2="29.08"/>
                    <line class="st5" x1="96.05" x2="95.51"  y1="25.27" y2="25.27"/>
                    <line class="st5" x1="95.33" x2="95.51"  y1="25.48" y2="25.27"/>
                    <line class="st5" x1="88.56" x2="88.38"  y1="28.86" y2="29.08"/>
                    <line class="st5" x1="88.56" x2="95.33"  y1="28.86" y2="28.86"/>
                    <line class="st5" x1="88.56" x2="88.38"  y1="25.48" y2="25.27"/>
                    <line class="st5" x1="88.56" x2="95.33"  y1="25.48" y2="25.48"/>
                    <line class="st5" x1="87.84" x2="88.38"  y1="29.08" y2="29.08"/>
                    <line class="st5" x1="87.84" x2="88.38"  y1="25.27" y2="25.27"/>
                    <line class="st5" x1="87.48" x2="87.48"  y1="25.69" y2="28.65"/>
                    <rect class="st6" height="1.02" width="1.21" x="86.27"  y="27.68"/>
                    <rect class="st6" height="1.02" width="1.21" x="96.4"  y="27.68"/>
                </g>
            </g>
            <g >
                <g >
                    <g />
                </g>
            </g>
        </g>
    </g>
    <g gorn="0.5" id="R3" >
        <g >
            <path class="st3" d="M92.92,44.67v1.35 M92.92,44.67h0.58l0.19,0.06l0.07,0.06l0.06,0.13v0.13l-0.06,0.13l-0.07,0.06l-0.19,0.06    h-0.58 M93.37,45.31l0.45,0.71 M94.37,44.67h0.71l-0.39,0.52h0.19l0.13,0.06l0.06,0.06l0.07,0.19v0.13l-0.07,0.19l-0.13,0.13    l-0.19,0.06h-0.19l-0.19-0.06l-0.06-0.06l-0.07-0.13" />
        </g>
        <g >
            <g >
                <g >
                    <path class="st4" d="M95.69,47.14c0.2,0,0.36-0.19,0.36-0.42" />
                    <path class="st4" d="M96.04,43.76c0-0.23-0.16-0.42-0.36-0.42l0,0" />
                    <path class="st4" d="M87.48,43.33c-0.2,0-0.36,0.19-0.36,0.42l0,0" />
                    <path class="st4" d="M87.12,46.72c0,0.23,0.16,0.42,0.36,0.42" />
                    <line class="st5" x1="96.04" x2="96.04"  y1="43.76" y2="46.72"/>
                    <line class="st5" x1="95.69" x2="95.15"  y1="47.14" y2="47.14"/>
                    <line class="st5" x1="94.97" x2="95.15"  y1="46.93" y2="47.14"/>
                    <line class="st5" x1="95.69" x2="95.15"  y1="43.33" y2="43.33"/>
                    <line class="st5" x1="94.97" x2="95.15"  y1="43.54" y2="43.33"/>
                    <line class="st5" x1="88.2" x2="88.02"  y1="46.93" y2="47.14"/>
                    <line class="st5" x1="88.2" x2="94.97"  y1="46.93" y2="46.93"/>
                    <line class="st5" x1="88.2" x2="88.02"  y1="43.54" y2="43.33"/>
                    <line class="st5" x1="88.2" x2="94.97"  y1="43.54" y2="43.54"/>
                    <line class="st5" x1="87.48" x2="88.02"  y1="47.14" y2="47.14"/>
                    <line class="st5" x1="87.48" x2="88.02"  y1="43.33" y2="43.33"/>
                    <line class="st5" x1="87.12" x2="87.12"  y1="43.76" y2="46.72"/>
                    <rect class="st6" height="1.02" width="1.21" x="85.91"  y="45.74"/>
                    <rect class="st6" height="1.02" width="1.21" x="96.04"  y="45.74"/>
                </g>
            </g>
            <g >
                <g >
                    <g />
                </g>
            </g>
        </g>
    </g>
    <g gorn="0.6" id="R4" >
        <g >
            <path class="st3" d="M93.38,32.13v1.35 M93.38,32.13h0.58l0.19,0.06l0.07,0.06l0.06,0.13v0.13l-0.06,0.13l-0.07,0.06l-0.19,0.06    h-0.58 M93.83,32.78l0.45,0.71 M95.35,32.13l-0.65,0.91h0.97 M95.35,32.13v1.35" />
        </g>
        <g >
            <g >
                <g >
                    <path class="st4" d="M96.05,34.84c0.2,0,0.36-0.19,0.36-0.42" />
                    <path class="st4" d="M96.4,31.45c0-0.23-0.16-0.42-0.36-0.42l0,0" />
                    <path class="st4" d="M87.84,31.03c-0.2,0-0.36,0.19-0.36,0.42v0" />
                    <path class="st4" d="M87.48,34.41c0,0.23,0.16,0.42,0.36,0.42" />
                    <line class="st5" x1="96.4" x2="96.4"  y1="31.45" y2="34.41"/>
                    <line class="st5" x1="96.05" x2="95.51"  y1="34.84" y2="34.84"/>
                    <line class="st5" x1="95.33" x2="95.51"  y1="34.62" y2="34.84"/>
                    <line class="st5" x1="96.05" x2="95.51"  y1="31.03" y2="31.03"/>
                    <line class="st5" x1="95.33" x2="95.51"  y1="31.24" y2="31.03"/>
                    <line class="st5" x1="88.56" x2="88.38"  y1="34.62" y2="34.84"/>
                    <line class="st5" x1="88.56" x2="95.33"  y1="34.62" y2="34.62"/>
                    <line class="st5" x1="88.56" x2="88.38"  y1="31.24" y2="31.03"/>
                    <line class="st5" x1="88.56" x2="95.33"  y1="31.24" y2="31.24"/>
                    <line class="st5" x1="87.84" x2="88.38"  y1="34.84" y2="34.84"/>
                    <line class="st5" x1="87.84" x2="88.38"  y1="31.03" y2="31.03"/>
                    <line class="st5" x1="87.48" x2="87.48"  y1="31.45" y2="34.41"/>
                    <rect class="st6" height="1.02" width="1.21" x="86.27"  y="33.44"/>
                    <rect class="st6" height="1.02" width="1.21" x="96.4"  y="33.44"/>
                </g>
            </g>
            <g >
                <g >
                    <g />
                </g>
            </g>
        </g>
    </g>
    <g transform="matrix(1, 0, 0, 1, 11.6415, 37.5755)" >
        <g >
            <g >
                <g gorn="0.7.0.0.0" id="LED" >
                    <g >
                        <path class="st3" d="M71.15,0.86v1.35 M71.15,2.22h0.77 M72.34,0.86v1.35 M72.34,0.86h0.84 M72.34,1.51h0.52 M72.34,2.22h0.84     M73.6,0.86v1.35 M73.6,0.86h0.45l0.19,0.06l0.13,0.13l0.06,0.13l0.07,0.19v0.32l-0.07,0.19l-0.06,0.13l-0.13,0.13l-0.19,0.06    H73.6 M74.93,1.12l0.13-0.06l0.19-0.19v1.35" />
                    </g>
                    <g gorn="0.7.0.0.0.1" id="chipled_0805_2_" >
                        <g transform="matrix(0, 1, -1, 0, 5.62951, 1.77951)" >
                            <g >
                                <g >
                                    <g >
                                        <g >
                                            <g transform="matrix(1, 0, 0, 1, 21.5539, 31.3385)" >
                                                <g >
                                                    <g >
                                                        <g >
                                                            <g gorn="0.7.0.0.0.1.0.0.0.0.0.0.0.0.0.0" id="led-0603_3_" >
                                                                <line class="st7" x1="-23.77" x2="-23.77"  y1="-109.69" y2="-102.46"/>
                                                                <g transform="matrix(2.57889e-06, 1, -1, 2.57889e-06, -162.974, -68.2279)" >
                                                                    <g >
                                                                        <g >
                                                                            <g >
                                                                                <rect class="st8" height="3.83" width="7.35" x="-41.47"  y="-143.04"/>
                                                                            </g>
                                                                        </g>
                                                                    </g>
                                                                </g>
                                                                <path class="st9" d="M-23.77-104.94c0,0,0.47,0.65,0.43,0.87c-0.04,0.22,0.15,0.54,0,0.68l-0.42-0.02L-23.77-104.94z" />
                                                                <g >
                                                                    <g transform="matrix(2.57889e-06, 1, -1, 2.57889e-06, -162.875, -68.2708)" >
                                                                        <g >
                                                                            <g >
                                                                                <g >
                                                                                    <rect class="st6" height="0.96" width="0.85" x="-38.25"  y="-141.53"/>
                                                                                </g>
                                                                            </g>
                                                                        </g>
                                                                    </g>
                                                                    <g transform="matrix(2.57889e-06, 1, -1, 2.57889e-06, -163.355, -68.7528)" >
                                                                        <g >
                                                                            <g >
                                                                                <g >
                                                                                    <rect class="st10" height="0.05" width="0.85" x="-37.77"  y="-141.07"/>
                                                                                </g>
                                                                            </g>
                                                                        </g>
                                                                    </g>
                                                                </g>
                                                                <g >
                                                                    <polygon class="st11" points="-23.35,-104.36 -23.45,-103.4 -22.72,-103.4 -22.83,-104.36        " />
                                                                    <g >
                                                                        <path class="st11" d="M-23.15-104.3C-23.15-104.31-23.15-104.31-23.15-104.3c0.04-0.27,0.1-0.45,0.16-0.61          c0.08-0.21,0.78-0.56,0.7-0.83c-0.01-0.03,0.01-0.06,0.04-0.06c0.04-0.01,0.07,0.01,0.08,0.04c0.1,0.3-0.62,0.67-0.7,0.89          c-0.06,0.15-0.12,0.32-0.15,0.57c0,0.03-0.03,0.06-0.07,0.05C-23.13-104.25-23.15-104.28-23.15-104.3z" />
                                                                    </g>
                                                                    <polygon class="st11" points="-20.46,-107.78 -20.36,-108.75 -21.09,-108.75 -20.99,-107.78        " />
                                                                    <g >
                                                                        <path class="st11" d="M-21.98-106.13c0-0.02,0.02-0.05,0.05-0.06c0.29-0.06,1.15-1.09,1.15-1.89c0-0.03,0.03-0.06,0.06-0.06          c0.03,0,0.06,0.02,0.06,0.06v0c0,0.75-0.77,1.89-1.24,1.99c-0.03,0.01-0.07-0.01-0.08-0.04          C-21.98-106.12-21.98-106.13-21.98-106.13z" />
                                                                    </g>
                                                                    <path class="st11" d="M-22-105.66c0,0,0-0.36-0.31-0.38c0,0.07,0,0.38,0,0.38H-22z" />
                                                                    <path class="st11" d="M-21.68-106.1c0,0-0.31,0.16-0.35,0.05c-0.05-0.11-0.05-0.18,0.03-0.24         C-21.92-106.34-21.68-106.1-21.68-106.1z" />
                                                                    <path class="st12" d="M-22.35-105.74c0.08,0.27-0.62,0.62-0.7,0.83c-0.06,0.15-0.13,0.33-0.16,0.6h0.06         c0.03-0.27,0.1-0.45,0.16-0.6c0.08-0.21,0.78-0.56,0.7-0.83H-22.35z" />
                                                                    <polygon class="st12" points="-21.04,-107.78 -21.14,-108.75 -21.09,-108.75 -20.99,-107.78        " />
                                                                    <path class="st12" d="M-21.99-106.19c0.29-0.06,1.21-1.07,1.15-1.89h0.06c0.06,0.88-0.86,1.83-1.15,1.89L-21.99-106.19z" />
                                                                    <path class="st12" d="M-22.37-106.04c0,0.07,0,0.38,0,0.38h0.06c0,0,0-0.31,0-0.38H-22.37z" />
                                                                    <path class="st12" d="M-22.05-106.28c-0.08,0.06-0.08,0.13-0.03,0.24l0.06,0c-0.05-0.11-0.05-0.18,0.03-0.24H-22.05z" />
                                                                </g>
                                                                <g transform="matrix(2.57889e-06, 1, -1, 2.57889e-06, -160.999, -66.4222)" >
                                                                    <g >
                                                                        <g >
                                                                            <g >
                                                                                <rect class="st13" height="0.05" width="4.22" x="-41.79"  y="-141.06"/>
                                                                            </g>
                                                                        </g>
                                                                    </g>
                                                                </g>
                                                                <path class="st14" d="M-19.94-108.73l-3.83,0l0,5.32l3.83,0L-19.94-108.73z" />
                                                                <path class="st15" d="M-20.59-108.68h0.27c0.15,0.02,0.27-0.01,0.27,0.1c0,0.61,0,4.7,0,4.85c0,0.17-0.07,0.18-0.07-0.01        c0-0.13,0-3.89,0-4.35c0-0.46-0.1-0.52-0.2-0.52l-0.27,0C-20.77-108.61-20.77-108.68-20.59-108.68z" />
                                                                <path class="st16" d="M-23.55-103.56c-0.07,0-0.14,0.01-0.14-0.1c0-0.61,0-4.67,0-4.82c0-0.17,0.06-0.18,0.06,0.01        c0,0.14,0,3.14,0,3.59C-23.62-104.28-23.55-103.56-23.55-103.56z" />
                                                                <path class="st11" d="M-23.77-109.69l0,0.77h0.52c0.12,0,0.21,0.08,0.27,0.19l3.05,0l0-1.01l-3.79,0h-0.05" />
                                                                <g transform="matrix(2.57889e-06, 1, -1, 2.57889e-06, -157.863, -69.5579)" >
                                                                    <g >
                                                                        <g >
                                                                            <g >
                                                                                <rect class="st13" height="0.05" width="1.01" x="-40.18"  y="-137.92"/>
                                                                            </g>
                                                                        </g>
                                                                    </g>
                                                                </g>
                                                                <path class="st11" d="M-23.77-102.34h0.05l3.78,0l0-1.07l-3.46,0c-0.06,0.1-0.15,0.19-0.27,0.19h-0.1l0,0.83" />
                                                                <g transform="matrix(2.57889e-06, 1, -1, 2.57889e-06, -164.22, -63.2005)" >
                                                                    <g >
                                                                        <g >
                                                                            <g >
                                                                                <rect class="st13" height="0.05" width="1.07" x="-40.22"  y="-144.28"/>
                                                                            </g>
                                                                        </g>
                                                                    </g>
                                                                </g>
                                                            </g>
                                                        </g>
                                                    </g>
                                                </g>
                                            </g>
                                        </g>
                                    </g>
                                </g>
                            </g>
                        </g>
                    </g>
                </g>
            </g>
        </g>
    </g>
    <g gorn="0.8" id="C1" >
        <g >
            <path class="st3" d="M43.49,27.38l-0.06-0.13l-0.13-0.13l-0.13-0.06h-0.25l-0.13,0.06l-0.13,0.13l-0.06,0.13l-0.06,0.19v0.32    l0.06,0.19l0.06,0.12l0.13,0.13l0.13,0.06h0.25l0.13-0.06l0.13-0.13l0.06-0.12 M43.91,27.32l0.13-0.06l0.19-0.19v1.35" />
        </g>
        <g >
            <g >
                <line class="st5" x1="45.59" x2="45.59"  y1="29.9" y2="38.91"/>
                <line class="st5" x1="41.1" x2="41.1"  y1="38.91" y2="29.9"/>
                <line class="st5" x1="45.14" x2="41.55"  y1="39.44" y2="39.44"/>
                <line class="st5" x1="45.14" x2="41.55"  y1="29.37" y2="29.37"/>
                <path class="st4" d="M45.14,39.44c0.25,0,0.45-0.24,0.45-0.53l0,0" />
                <path class="st4" d="M45.59,29.9c0-0.29-0.2-0.53-0.45-0.53l0,0" />
                <path class="st4" d="M41.1,38.91c0,0.29,0.2,0.53,0.45,0.53l0,0" />
                <path class="st4" d="M41.55,29.37c-0.25,0-0.45,0.24-0.45,0.53l0,0" />
                <line class="st5" x1="43.34" x2="43.34"  y1="35.2" y2="34.93"/>
                <line class="st17" x1="43.34" x2="44.69"  y1="34.93" y2="34.93"/>
                <line class="st17" x1="43.34" x2="42"  y1="34.93" y2="34.93"/>
                <line class="st17" x1="44.69" x2="43.34"  y1="33.87" y2="33.87"/>
                <line class="st17" x1="43.34" x2="42"  y1="33.87" y2="33.87"/>
                <line class="st5" x1="43.34" x2="43.34"  y1="33.87" y2="33.61"/>
            </g>
        </g>
    </g>
    <path class="st6" d="M78.43,25.06c-0.11,0.06-0.14,0.15-0.14,0.41c0,0.13,0.01,0.26,0.03,0.29  c0.01,0.03,0.17,0.19,0.35,0.36l0.33,0.3v0.56v0.56l-0.09,0.08c-0.06,0.05-0.09,0.1-0.09,0.15c0,0.08,0.07,0.17,0.13,0.17  c0.03,0,0.04,0.05,0.04,0.26v0.26l-0.09,0.07c-0.11,0.08-0.11,0.19-0.03,0.27c0.03,0.03,0.07,0.06,0.09,0.06  c0.02,0,0.03,0.09,0.03,0.25v0.25l-0.09,0.08c-0.11,0.1-0.11,0.22,0.01,0.29l0.08,0.05l0,0.25l0,0.25l-0.09,0.08  c-0.06,0.06-0.09,0.1-0.09,0.15c0,0.08,0.07,0.17,0.13,0.17c0.03,0,0.04,0.03,0.04,0.1c0,0.08,0.08,0.26,0.35,0.83  c0.19,0.4,0.35,0.73,0.36,0.73c0.01,0,0.17-0.33,0.36-0.73l0.35-0.73v-0.64v-0.64l0.09-0.08c0.11-0.1,0.11-0.22-0.01-0.29  l-0.08-0.05l0-0.24l0-0.24l0.09-0.08c0.1-0.09,0.11-0.2,0.03-0.28c-0.03-0.03-0.07-0.05-0.09-0.05c-0.02,0-0.03-0.07-0.03-0.25  v-0.25l0.09-0.08c0.06-0.06,0.09-0.11,0.09-0.15c0-0.07-0.07-0.17-0.13-0.17c-0.03,0-0.04-0.05-0.04-0.26v-0.26l0.09-0.08  c0.12-0.11,0.11-0.26-0.03-0.31c-0.06-0.02-0.06-0.03-0.02-0.07c0.03-0.02,0.17-0.16,0.33-0.31c0.15-0.14,0.29-0.29,0.31-0.31  c0.04-0.08,0.04-0.51-0.01-0.6c-0.08-0.15-0.06-0.15-1.39-0.14C78.68,25.03,78.48,25.03,78.43,25.06 M80.78,25.49l0,0.13l-0.36,0.34  l-0.36,0.34l0,0.2l0,0.2l-0.34,0.28l-0.34,0.28v-0.47V26.3L79,25.95c-0.36-0.34-0.37-0.35-0.37-0.45c0-0.06,0.01-0.11,0.02-0.12  c0.01-0.01,0.49-0.02,1.08-0.02h1.06L80.78,25.49 M80.05,27.38v0.23l-0.3,0.24c-0.16,0.13-0.32,0.26-0.34,0.28  c-0.04,0.03-0.04,0.02-0.04-0.2V27.7l0.34-0.27c0.18-0.15,0.34-0.27,0.34-0.27C80.04,27.15,80.05,27.25,80.05,27.38 M80.05,28.28  v0.23l-0.17,0.14c-0.1,0.08-0.24,0.2-0.33,0.27c-0.08,0.07-0.16,0.13-0.17,0.13c-0.01,0-0.01-0.1-0.01-0.23l0-0.23l0.33-0.27  c0.18-0.15,0.34-0.27,0.34-0.27C80.04,28.05,80.05,28.16,80.05,28.28 M80.05,29.21l0,0.23l-0.34,0.28l-0.34,0.28v-0.23v-0.23  l0.33-0.27c0.18-0.15,0.34-0.27,0.34-0.27C80.04,28.98,80.05,29.08,80.05,29.21 M79.88,31.18c-0.09,0.19-0.17,0.35-0.18,0.35  c-0.01,0-0.09-0.16-0.18-0.35c-0.16-0.34-0.16-0.36-0.16-0.54l0-0.19l0.34-0.27l0.34-0.27l0.01,0.47l0.01,0.47L79.88,31.18" gorn="0.9" id="Screw" />
    <g gorn="0.10" id="IC" >
        <g >
            <path class="st3" d="M65.82,24.01v0.97l0.06,0.19l0.13,0.13l0.19,0.06h0.13l0.19-0.06l0.13-0.13l0.06-0.19v-0.97 M67.15,24.27    l0.13-0.06l0.19-0.19v1.35" />
        </g>
        <g gorn="0.10.1" id="breadboard_00000077297221691573358310000000158532539211180437_" >
            <rect class="st18" gorn="0.10.1.0" height="25.44" id="middle_00000100341039322465729800000009611909314803363766_" width="9.81" x="52.48"  y="24.18"/>
            <rect class="st19" gorn="0.10.1.1" height="25.44" id="top_00000075868291803377806850000004541279256374453893_" width="0.89" x="52.48"  y="24.18"/>
            <rect gorn="0.10.1.2" height="25.44" id="bottom_00000154418694958358988100000010362806735990996412_" width="0.89" x="61.4"  y="24.18"/>
            <polygon class="st20" gorn="0.10.1.3" id="right_00000062891837427848409000000012637674467236086460_" points="52.48,24.18 53.37,24.45     61.4,24.45 62.29,24.18   " />
            <polygon class="st21" gorn="0.10.1.4" id="left_00000155124415487719307330000004647922500974373558_" points="52.48,49.62 53.37,49.34     61.4,49.34 62.29,49.62   " />
            <polygon class="st22" gorn="0.10.1.5" id="left-upper-rect_00000068662209811490253760000000338598461774023096_" points="55.57,47.8 55.55,49.34     56.32,49.41 57.38,49.41 57.38,47.8   " />
            <polygon class="st23" gorn="0.10.1.6" id="left-lower-rect_00000132766284171379379610000005072616191786364312_" points="59.22,49.34 59.22,47.8     57.38,47.8 57.38,49.41 58.45,49.41   " />
            <path class="st24" d="M56.32,49.41h2.12    c-0.06-0.53-0.51-0.95-1.06-0.95C56.83,48.46,56.39,48.88,56.32,49.41z" gorn="0.10.1.7" id="slot_00000073695852181587073280000004505762209891394946_" />
            <path class="st18" d="M53.37,49.34h2.18    c0.16-0.86,0.92-1.52,1.83-1.52s1.67,0.65,1.84,1.52h0v-1.82h-5.85V49.34z" gorn="0.10.1.8" id="cover_00000127758333188727888810000000067398576658574473_" />
            <circle class="st25" cx="59.92" cy="47.26" r="0.75" />
            <g gorn="0.10.1.10" id="label_00000044858702165074702920000001504202486762702734_" >
                <path class="st26" d="M55.5,46.69v-0.62c0-0.08,0.03-0.15,0.1-0.21c0.06-0.07,0.14-0.1,0.23-0.1c0.03,0,0.06,0.01,0.09,0.04     c0.02,0.02,0.04,0.05,0.04,0.08c0,0.04-0.01,0.07-0.03,0.08c-0.02,0.01-0.05,0.03-0.1,0.04c-0.05,0.01-0.08,0.04-0.08,0.09v0.59     c0,0.03,0.01,0.04,0.03,0.04c0.01,0,0.02,0,0.04-0.02l1.13-0.89c0.06-0.04,0.11-0.06,0.18-0.06c0.07,0,0.13,0.03,0.19,0.08     c0.05,0.05,0.08,0.11,0.08,0.17v0.64c0,0.08-0.03,0.16-0.1,0.22c-0.06,0.06-0.14,0.09-0.21,0.09c-0.09,0-0.13-0.04-0.13-0.12     c0-0.03,0.01-0.06,0.03-0.08c0.02-0.02,0.05-0.03,0.08-0.03c0.03,0,0.05-0.01,0.06-0.03s0.03-0.04,0.03-0.07v-0.59     c0-0.03-0.01-0.04-0.03-0.04c-0.01,0-0.02,0-0.04,0.02l-1.13,0.88c-0.05,0.04-0.11,0.06-0.18,0.06c-0.07,0-0.14-0.03-0.19-0.08     C55.52,46.83,55.5,46.77,55.5,46.69z" />
                <path class="st26" d="M55.67,44.32l0.54-0.26c0.07-0.04,0.15-0.06,0.24-0.06c0.08,0,0.16,0.02,0.24,0.06l0.53,0.26     c0.12,0.06,0.17,0.15,0.17,0.28c0,0.06-0.02,0.12-0.05,0.17s-0.07,0.09-0.12,0.11l-0.53,0.26c-0.07,0.04-0.15,0.05-0.24,0.05     c-0.09,0-0.17-0.02-0.24-0.05l-0.54-0.26c-0.12-0.06-0.17-0.16-0.17-0.29C55.5,44.47,55.56,44.38,55.67,44.32z M55.79,44.69     l0.5,0.25c0.05,0.02,0.1,0.03,0.15,0.03c0.05,0,0.1-0.01,0.15-0.03l0.51-0.25c0.03-0.01,0.05-0.04,0.05-0.07     c0-0.03-0.02-0.05-0.05-0.07l-0.51-0.26c-0.05-0.02-0.1-0.04-0.15-0.04c-0.05,0-0.1,0.01-0.15,0.04l-0.5,0.25     c-0.04,0.02-0.06,0.04-0.06,0.08S55.75,44.67,55.79,44.69z" />
                <path class="st26" d="M55.5,43.33v-0.96c0-0.03,0.01-0.06,0.04-0.08c0.02-0.02,0.05-0.04,0.08-0.04c0.03,0,0.06,0.01,0.09,0.04     c0.02,0.02,0.04,0.05,0.04,0.08v0.36h1.41v-0.36c0-0.03,0.01-0.06,0.03-0.08c0.02-0.02,0.05-0.04,0.08-0.04s0.06,0.01,0.08,0.04     c0.02,0.02,0.03,0.05,0.03,0.08v0.96c0,0.03-0.01,0.06-0.03,0.08c-0.02,0.02-0.05,0.04-0.08,0.04s-0.06-0.01-0.08-0.04     c-0.02-0.02-0.03-0.05-0.03-0.08v-0.37h-1.41v0.37c0,0.03-0.01,0.06-0.04,0.08c-0.02,0.02-0.05,0.04-0.08,0.04     c-0.03,0-0.06-0.01-0.09-0.04C55.51,43.39,55.5,43.37,55.5,43.33z" />
                <path class="st26" d="M57.15,41.04v-0.43c0-0.03,0.01-0.06,0.03-0.09c0.02-0.02,0.05-0.04,0.08-0.04s0.06,0.01,0.08,0.04     c0.02,0.02,0.03,0.05,0.03,0.09v0.45c0,0.06-0.02,0.12-0.05,0.18c-0.04,0.06-0.08,0.1-0.12,0.13l-0.53,0.28     c-0.08,0.04-0.15,0.05-0.24,0.05c-0.09,0-0.17-0.02-0.23-0.05l-0.53-0.28c-0.05-0.03-0.09-0.07-0.13-0.12     c-0.04-0.06-0.06-0.11-0.06-0.16V40.6c0-0.03,0.01-0.06,0.04-0.08c0.02-0.02,0.05-0.03,0.08-0.03c0.03,0,0.06,0.01,0.09,0.03     c0.02,0.02,0.04,0.05,0.04,0.08v0.45c0,0.04,0.02,0.07,0.07,0.09l0.49,0.26c0.04,0.02,0.08,0.03,0.14,0.03     c0.06,0,0.1-0.01,0.15-0.03l0.49-0.25C57.12,41.13,57.15,41.09,57.15,41.04z" />
                <path class="st26" d="M57.14,39.83v-0.37h-1.41v0.36c0,0.03-0.01,0.06-0.03,0.08c-0.02,0.02-0.05,0.04-0.08,0.04     s-0.06-0.01-0.08-0.04c-0.02-0.02-0.03-0.05-0.03-0.08v-0.6h1.65v-0.24h-0.5c-0.03,0-0.06-0.01-0.08-0.03     c-0.02-0.02-0.04-0.05-0.04-0.08s0.01-0.06,0.03-0.08c0.02-0.02,0.05-0.04,0.08-0.04h0.62c0.03,0,0.06,0.01,0.08,0.04     c0.02,0.02,0.03,0.05,0.03,0.08v0.96c0,0.03-0.01,0.06-0.04,0.08c-0.02,0.02-0.05,0.04-0.09,0.04c-0.03,0-0.06-0.01-0.08-0.04     C57.15,39.89,57.14,39.86,57.14,39.83z" />
                <path class="st26" d="M57.26,37.4h-0.5v0.72h-1.15c-0.03,0-0.06-0.01-0.09-0.04c-0.02-0.02-0.04-0.05-0.04-0.09     c0-0.03,0.01-0.06,0.04-0.08s0.05-0.04,0.09-0.04h0.91V37.4h-0.7c-0.03,0-0.06-0.01-0.09-0.03c-0.02-0.02-0.04-0.05-0.04-0.08     s0.01-0.06,0.04-0.08c0.02-0.02,0.05-0.04,0.09-0.04h0.7c0-0.03,0.01-0.06,0.04-0.08c0.02-0.02,0.05-0.03,0.08-0.03     c0.03,0,0.06,0.01,0.08,0.03c0.02,0.02,0.03,0.05,0.03,0.08h0.5c0.03,0,0.06,0.01,0.08,0.04c0.02,0.02,0.03,0.05,0.03,0.08     c0,0.03-0.01,0.06-0.03,0.08C57.32,37.39,57.3,37.4,57.26,37.4z" />
            </g>
            <rect class="st27" gorn="0.10.1.11" height="1.09" id="connector0pin_00000146478618119248437440000012871122934914055101_" width="1.58" x="61.8"  y="47.26"/>
            <g gorn="0.10.1.12" id="connector0terminal_00000156554782628424521530000009100923699293544112_" />
            <rect class="st27" gorn="0.10.1.13" height="1.09" id="connector13pin_00000116206592923783788670000004187849236856430250_" width="1.58" x="51.39"  y="47.26"/>
            <g gorn="0.10.1.14" id="connector13terminal_00000121275180334005229240000014517000434833943684_" />
            <rect class="st27" gorn="0.10.1.15" height="1.09" id="connector6pin_00000036237301786270902940000013377224998190335392_" width="1.58" x="61.8"  y="25.45"/>
            <g gorn="0.10.1.16" id="connector6terminal_00000027562189707888530550000015739989131754334594_" />
            <rect class="st27" gorn="0.10.1.17" height="1.09" id="connector7pin_00000035518038435740159100000003293045039513757373_" width="1.58" x="51.39"  y="25.45"/>
            <g gorn="0.10.1.18" id="connector7terminal_00000044883342803304017710000014271971607774202298_" />
            <rect class="st27" gorn="0.10.1.19" height="1.09" id="connector12pin_00000130648198495652423240000016298216409170379398_" width="1.58" x="51.39"  y="43.62"/>
            <g gorn="0.10.1.20" id="connector12terminal_00000181769452148587717460000014754542153288794252_" />
            <rect class="st27" gorn="0.10.1.21" height="1.09" id="connector11pin_00000070820453068257278910000004107471284067134113_" width="1.58" x="51.39"  y="39.99"/>
            <g gorn="0.10.1.22" id="connector11terminal_00000167395120946918818270000008620627575393613444_" />
            <rect class="st27" gorn="0.10.1.23" height="1.09" id="connector10pin_00000148643504712740359270000015009850702280100528_" width="1.58" x="51.39"  y="36.35"/>
            <g gorn="0.10.1.24" id="connector10terminal_00000062161146516184103660000000475855788867701932_" />
            <rect class="st27" gorn="0.10.1.25" height="1.09" id="connector9pin_00000024000482295309289050000018376150357114605461_" width="1.58" x="51.39"  y="32.72"/>
            <g gorn="0.10.1.26" id="connector9terminal_00000053521511997055924690000002145302540268563589_" />
            <rect class="st27" gorn="0.10.1.27" height="1.09" id="connector8pin_00000104699966676348861090000017893067845160977801_" width="1.58" x="51.39"  y="29.09"/>
            <g gorn="0.10.1.28" id="connector8terminal_00000036967931750465990960000007309893456602620329_" />
            <rect class="st27" gorn="0.10.1.29" height="1.09" id="connector1pin_00000109726551698796255430000014964195671351043479_" width="1.58" x="61.8"  y="43.62"/>
            <g gorn="0.10.1.30" id="connector1terminal_00000080887866787977153910000018218414138290896824_" />
            <rect class="st27" gorn="0.10.1.31" height="1.09" id="connector2pin_00000032607732941825934790000007789133190918939815_" width="1.58" x="61.8"  y="39.99"/>
            <g gorn="0.10.1.32" id="connector2terminal_00000053528986176290462250000011642815646400100275_" />
            <rect class="st27" gorn="0.10.1.33" height="1.09" id="connector3pin_00000101816300414976515990000012008331908601846407_" width="1.58" x="61.8"  y="36.35"/>
            <g gorn="0.10.1.34" id="connector3terminal_00000064329178538992805210000009331028757043756188_" />
            <rect class="st27" gorn="0.10.1.35" height="1.09" id="connector4pin_00000005250675192505148740000009965988584328828546_" width="1.58" x="61.8"  y="32.72"/>
            <g gorn="0.10.1.36" id="connector4terminal_00000006672638072500730100000010089603182603733927_" />
            <rect class="st27" gorn="0.10.1.37" height="1.09" id="connector5pin_00000058558587943245700560000012328742010408773263_" width="1.58" x="61.8"  y="29.09"/>
            <g gorn="0.10.1.38" id="connector5terminal_00000041262961724430412910000017808020213540046729_" />
        </g>
    </g>
    <g transform="matrix(0.999998, 0, 0, -0.999998, 5.16408, 860.569)" >
        <g >
            <g >
                <g class="st28" gorn="0.11.0.0.0" id="Male_pins" >
                    <g class="st29" gorn="0.11.0.0.0.0" id="Right_Pins" >
                        <g >
                            <ellipse class="st30" cx="114.19" cy="826.49" rx="2.16" ry="-2.16" />
                        </g>
                        <g >
                            <ellipse class="st30" cx="114.19" cy="819.29" rx="2.16" ry="-2.16" />
                        </g>
                        <g >
                            <ellipse class="st30" cx="102.57" cy="819.29" rx="2.16" ry="-2.16" />
                        </g>
                        <g >
                            <ellipse class="st30" cx="102.57" cy="826.49" rx="2.16" ry="-2.16" />
                        </g>
                    </g>
                    <g class="st29" gorn="0.11.0.0.0.1" id="g102" >
                        <path class="st31" d="M113.06,825.36v2.27h2.27v-2.27    H113.06z" gorn="0.11.0.0.0.1.0" id="connector3pin_00000166659358780006669630000000971235730747428024_" />
                        <path class="st31" d="M115.33,820.43v-2.27h-2.27v2.27    H115.33z" gorn="0.11.0.0.0.1.1" id="connector2pin_00000029755041126100965140000014806860263712626365_" />
                        <path class="st31" d="M101.44,827.63h2.27v-2.27h-2.27    V827.63z" gorn="0.11.0.0.0.1.2" id="connector1pin_00000063616243629182459940000000511003080387261374_" />
                        <path class="st31" d="M101.44,820.43h2.27v-2.27h-2.27    V820.43z" gorn="0.11.0.0.0.1.3" id="connector0pin_00000183956097464688567870000008368109270179248019_" />
                    </g>
                </g>
            </g>
        </g>
    </g>
    <g gorn="0.12" id="Male_90_degree" >
        <g >
            <g >
                <path class="st3" d="M26.06,48.84v1.35 M26.96,48.84v1.35 M26.06,49.49h0.9 M27.39,49.1l0.13-0.06l0.19-0.19v1.35" />
            </g>
            <g >
                <path class="st32" d="M34.6,43.31l-0.21,0.1l-0.2,0.21l-0.11,0.21l-0.1,0.31v0.51l0.1,0.31l0.11,0.21l0.2,0.21l0.21,0.1h0.41     l0.21-0.1l0.2-0.21l0.11-0.21l0.1-0.31v-0.51l-0.1-0.31l-0.11-0.21l-0.2-0.21l-0.21-0.1H34.6 M36.32,43.31v1.55l0.1,0.31     l0.2,0.21l0.31,0.1h0.21l0.31-0.1l0.21-0.21l0.1-0.31v-1.55 M39.16,43.31v2.17 M38.43,43.31h1.45" />
            </g>
            <g >
                <path class="st32" d="M33.83,35.75h1.13l-0.62,0.83h0.31l0.21,0.1l0.1,0.1l0.1,0.31v0.21l-0.1,0.31l-0.21,0.21l-0.3,0.1h-0.31     l-0.31-0.1l-0.11-0.11l-0.1-0.2 M35.75,35.75l0.82,2.17 M37.4,35.75l-0.83,2.17 M38.28,35.75h1.14l-0.62,0.83h0.31l0.2,0.1     l0.11,0.1l0.1,0.31v0.21l-0.1,0.31l-0.21,0.21l-0.31,0.1h-0.31l-0.31-0.1l-0.1-0.11l-0.11-0.2" />
            </g>
            <g >
                <path class="st32" d="M35.17,29.43l-0.11-0.21l-0.2-0.21l-0.21-0.1h-0.41l-0.21,0.1l-0.2,0.21l-0.11,0.21l-0.1,0.31v0.51     l0.1,0.31l0.11,0.21l0.2,0.21l0.21,0.1h0.41l0.21-0.1l0.2-0.21l0.11-0.21v-0.31 M34.65,30.25h0.52 M35.85,28.91v2.17      M35.85,28.91l1.45,2.17 M37.3,28.91v2.17 M37.97,28.91v2.17 M37.97,28.91h0.72l0.31,0.1l0.21,0.21l0.1,0.21l0.11,0.31v0.51     l-0.11,0.31l-0.1,0.21L39,30.97l-0.31,0.1h-0.72" />
            </g>
        </g>
        <g >
            <rect class="st33" height="3.71" width="7.43" x="25.48"  y="27.76"/>
            <polygon class="st33" points="31.05,25.91 32.9,27.76 25.48,27.76 27.33,25.91   " />
            <polygon class="st33" points="32.9,31.48 31.05,33.33 27.33,33.33 25.48,31.48   " />
            <rect class="st31" height="1.31" width="1.67" x="28.36"  y="28.96"/>
        </g>
        <g >
            <rect class="st33" height="3.71" width="7.43" x="25.48"  y="42.61"/>
            <polygon class="st33" points="31.05,40.76 32.9,42.61 25.48,42.61 27.33,40.76   " />
            <polygon class="st33" points="32.9,46.33 31.05,48.18 27.33,48.18 25.48,46.33   " />
            <rect class="st31" height="1.31" width="1.67" x="28.36"  y="43.81"/>
        </g>
        <g >
            <rect class="st33" height="3.71" width="7.43" x="25.48"  y="35.19"/>
            <polygon class="st33" points="31.05,33.33 32.9,35.19 25.48,35.19 27.33,33.33   " />
            <polygon class="st33" points="32.9,38.9 31.05,40.76 27.33,40.76 25.48,38.9   " />
            <rect class="st31" height="1.31" width="1.67" x="28.36"  y="36.39"/>
        </g>
        <g gorn="0.12.4" id="Male_Pin" >
            <g >
                <g >
                    <g >
                        <polygon class="st34" points="11.64,38.19 9.69,37.63 9.69,36.45 11.64,35.9 28.97,35.9 28.97,38.19      " />
                        <polygon class="st35" gorn="0.12.4.0.0.0.1" id="connector1pin" points="9.69,37.63 10.23,37.79 10.23,36.3 9.69,36.45      " />
                        <rect fill="none" gorn="0.12.4.0.0.0.2" height="0.00298" id="connector1terminal" stroke="none" stroke-width="0" width="0.00108" x="9.68946"  y="37.0435"/>
                    </g>
                    <polygon class="st36" points="30.09,38.19 30.09,35.9 29.65,35.9 29.65,38.19     " />
                    <polygon class="st35" points="29.63,38.19 29.63,35.9 28.97,35.9 28.97,38.19     " />
                </g>
            </g>
        </g>
        <g gorn="0.12.5" id="Male_Pin_00000180329091057861314510000004885787001873050554_" >
            <g >
                <g >
                    <g >
                        <polygon class="st34" points="11.64,45.62 9.69,45.06 9.69,43.88 11.64,43.32 28.97,43.32 28.97,45.62      " />
                        <polygon class="st35" gorn="0.12.5.0.0.0.1" id="connector2pin" points="9.69,45.06 10.23,45.22 10.23,43.72 9.69,43.88      " />
                        <rect fill="none" gorn="0.12.5.0.0.0.2" height="0.003" id="connector2terminal" stroke="none" stroke-width="0" width="0.00108" x="9.68946"  y="44.4685"/>
                    </g>
                    <polygon class="st36" points="30.09,45.62 30.09,43.32 29.65,43.32 29.65,45.62     " />
                    <polygon class="st35" points="29.63,45.62 29.63,43.32 28.97,43.32 28.97,45.62     " />
                </g>
            </g>
        </g>
        <g gorn="0.12.6" id="Male_Pin_00000000902931182367002570000006593565775405901499_" >
            <g >
                <g >
                    <g >
                        <polygon class="st34" points="11.64,30.77 9.69,30.21 9.69,29.03 11.64,28.47 28.97,28.47 28.97,30.77      " />
                        <polygon class="st35" gorn="0.12.6.0.0.0.1" id="connector0pin" points="9.69,30.21 10.23,30.37 10.23,28.87 9.69,29.03      " />
                        <rect fill="none" gorn="0.12.6.0.0.0.2" height="0.003" id="connector0terminal" stroke="none" stroke-width="0" width="0.00108" x="9.68946"  y="29.6185"/>
                    </g>
                    <polygon class="st36" points="30.09,30.77 30.09,28.47 29.65,28.47 29.65,30.77     " />
                    <polygon class="st35" points="29.63,30.77 29.63,28.47 28.97,28.47 28.97,30.77     " />
                </g>
            </g>
        </g>
    </g>
    <g >
        <path class="st37" d="M100.49,43.96h25.66V30.48h-25.66V43.96z" />
        <g class="st28" >
            <g class="st29" >
                <ellipse class="st37" cx="119.31" cy="37.22" rx="4.06" ry="4.06" />
            </g>
            <g class="st29" >
                <ellipse class="st37" cx="107.35" cy="37.22" rx="4.06" ry="4.06" />
            </g>
        </g>
    </g>
    <g >
        <path class="st3" d="M103.29,27.46v0.97l0.06,0.19l0.13,0.13l0.19,0.06h0.13l0.19-0.06l0.13-0.13l0.06-0.19v-0.97 M104.68,27.78   v-0.06l0.06-0.13l0.06-0.06l0.13-0.06h0.26l0.13,0.06l0.06,0.06l0.06,0.13v0.13l-0.06,0.13l-0.13,0.19l-0.65,0.64h0.91" />
    </g>
    <path class="st38" d="M101.72,39.29v-3.88h1.93c0,0,0.5-1.93,2.83-1.93c2.32,0,2.82,1.93,2.82,1.93h2.12v3.88  L101.72,39.29L101.72,39.29z" gorn="0.15" id="_x30_.3.0" />
    <path class="st38" d="M115.53,39.29v-3.88h1.93  c0,0,0.5-1.93,2.83-1.93s2.82,1.93,2.82,1.93h2.12v3.88L115.53,39.29L115.53,39.29z" gorn="0.16" id="_x30_.3.0_00000008835482632216835730000012797842930520989631_" />
</svg>
